<?xml version="1.0" encoding="utf-8"?>
<!-- Generator: Adobe Illustrator 16.0.4, SVG Export Plug-In . SVG Version: 6.00 Build 0)  -->
<!DOCTYPE svg PUBLIC "-//W3C//DTD SVG 1.1//EN" "http://www.w3.org/Graphics/SVG/1.1/DTD/svg11.dtd">
<svg version="1.1" id="レイヤー_1" xmlns="http://www.w3.org/2000/svg" xmlns:xlink="http://www.w3.org/1999/xlink" x="0px"
	 y="0px" width="595.28px" height="841.89px" viewBox="0 0 595.28 841.89" enable-background="new 0 0 595.28 841.89"
	 xml:space="preserve">
<path fill="none" stroke="#004080" stroke-linecap="round" stroke-linejoin="round" d="M18.988,13.737h171.779V176.62h-27.227v56.77
	H46.215v-56.77H18.988V13.737z"/>
<path fill="none" stroke="#000000" stroke-linecap="round" stroke-linejoin="round" d="M30.327,170.101
	c-2.661,0-4.819-2.158-4.819-4.82c0-2.66,2.158-4.818,4.819-4.818s4.818,2.158,4.818,4.818
	C35.146,167.942,32.988,170.101,30.327,170.101z M35.146,95.179c0-2.662-2.157-4.82-4.818-4.82s-4.819,2.158-4.819,4.82
	c0,2.66,2.158,4.818,4.819,4.818S35.146,97.839,35.146,95.179z M35.146,25.075c0-2.662-2.157-4.818-4.818-4.818
	s-4.819,2.156-4.819,4.818s2.158,4.818,4.819,4.818S35.146,27.737,35.146,25.075z M109.697,25.075c0-2.662-2.158-4.818-4.819-4.818
	s-4.818,2.156-4.818,4.818s2.157,4.818,4.818,4.818S109.697,27.737,109.697,25.075z M184.248,25.075
	c0-2.662-2.158-4.818-4.818-4.818c-2.662,0-4.819,2.156-4.819,4.818s2.157,4.818,4.819,4.818
	C182.09,29.894,184.248,27.737,184.248,25.075z M184.248,95.179c0-2.662-2.158-4.82-4.818-4.82c-2.662,0-4.819,2.158-4.819,4.82
	c0,2.66,2.157,4.818,4.819,4.818C182.09,99.997,184.248,97.839,184.248,95.179z M184.248,165.28c0-2.66-2.158-4.818-4.818-4.818
	c-2.662,0-4.819,2.158-4.819,4.818c0,2.662,2.157,4.82,4.819,4.82C182.09,170.101,184.248,167.942,184.248,165.28z M113.099,207.087
	c0,3.938,0,7.877,0,11.816c0,0.123,0,0.248,0,0.373c0,3.287,2.665,5.951,5.952,5.951c3.288,0,5.953-2.664,5.953-5.951
	c0-4.064,0-8.127,0-12.189c3.397,0,6.795,0,10.191,0c0-39.242,0-78.484,0-117.727c-3.396,0-6.794,0-10.191,0
	c0-3.939,0-7.879,0-11.816c0-3.289-2.665-5.953-5.953-5.953c-3.287,0-5.952,2.664-5.952,5.953c0,3.938,0,7.877,0,11.816
	c-5.479,0-10.96,0-16.44,0c0-3.939,0-7.879,0-11.816c0-3.289-2.666-5.953-5.953-5.953s-5.953,2.664-5.953,5.953
	c0,3.938,0,7.877,0,11.816c-3.396,0-6.794,0-10.191,0c0,39.242,0,78.484,0,117.727c3.397,0,6.795,0,10.191,0
	c0,4.062,0,8.125,0,12.189c0,3.287,2.666,5.951,5.953,5.951s5.953-2.664,5.953-5.951c0-0.125,0-0.25,0-0.373
	c0-3.939,0-7.879,0-11.816C102.139,207.087,107.619,207.087,113.099,207.087z"/>
</svg>
