<?xml version="1.0" encoding="utf-8"?>
<!-- Generator: Adobe Illustrator 16.0.4, SVG Export Plug-In . SVG Version: 6.00 Build 0)  -->
<!DOCTYPE svg PUBLIC "-//W3C//DTD SVG 1.1//EN" "http://www.w3.org/Graphics/SVG/1.1/DTD/svg11.dtd">
<svg version="1.1" id="レイヤー_1" xmlns="http://www.w3.org/2000/svg" xmlns:xlink="http://www.w3.org/1999/xlink" x="0px"
	 y="0px" width="595.279px" height="841.89px" viewBox="0 0 595.279 841.89" enable-background="new 0 0 595.279 841.89"
	 xml:space="preserve">
<path fill="none" stroke="#004080" stroke-linecap="round" stroke-linejoin="round" d="M566.928,566.929H0V0h566.929
	L566.928,566.929L566.928,566.929z"/>
<path fill="none" stroke="#000000" stroke-linecap="round" stroke-linejoin="round" d="M104.882,24.661
	c-2.661,0-4.819-2.157-4.819-4.819c0-2.661,2.158-4.818,4.819-4.818s4.818,2.157,4.818,4.818
	C109.7,22.504,107.543,24.661,104.882,24.661z M194.74,19.842c0-2.661-2.157-4.818-4.819-4.818c-2.661,0-4.818,2.157-4.818,4.818
	c0,2.662,2.157,4.819,4.818,4.819C192.583,24.661,194.74,22.504,194.74,19.842z M288.283,19.842c0-2.661-2.157-4.818-4.819-4.818
	c-2.661,0-4.818,2.157-4.818,4.818c0,2.662,2.157,4.819,4.818,4.819C286.126,24.661,288.283,22.504,288.283,19.842z M381.827,19.842
	c0-2.661-2.158-4.818-4.819-4.818s-4.819,2.157-4.819,4.818c0,2.662,2.158,4.819,4.819,4.819S381.827,22.504,381.827,19.842z
	 M466.865,19.842c0-2.661-2.157-4.818-4.818-4.818s-4.819,2.157-4.819,4.818c0,2.662,2.158,4.819,4.819,4.819
	S466.865,22.504,466.865,19.842z M19.843,100.062c-2.662,0-4.818,2.157-4.818,4.818c0,2.662,2.156,4.819,4.818,4.819
	c2.661,0,4.818-2.157,4.818-4.819C24.661,102.22,22.504,100.062,19.843,100.062z M19.843,185.102c-2.662,0-4.818,2.158-4.818,4.819
	s2.156,4.819,4.818,4.819c2.661,0,4.818-2.158,4.818-4.819S22.504,185.102,19.843,185.102z M19.843,278.645
	c-2.662,0-4.818,2.158-4.818,4.819s2.156,4.819,4.818,4.819c2.661,0,4.818-2.158,4.818-4.819S22.504,278.645,19.843,278.645z
	 M19.843,372.188c-2.662,0-4.818,2.157-4.818,4.819c0,2.661,2.156,4.818,4.818,4.818c2.661,0,4.818-2.157,4.818-4.818
	C24.661,374.346,22.504,372.188,19.843,372.188z M19.843,457.228c-2.662,0-4.818,2.156-4.818,4.818s2.156,4.818,4.818,4.818
	c2.661,0,4.818-2.156,4.818-4.818S22.504,457.228,19.843,457.228z M19.843,542.267c-2.662,0-4.818,2.158-4.818,4.818
	c0,2.662,2.156,4.818,4.818,4.818c2.661,0,4.818-2.156,4.818-4.818C24.661,544.425,22.504,542.267,19.843,542.267z M100.062,547.085
	c0,2.662,2.158,4.818,4.819,4.818s4.818-2.156,4.818-4.818c0-2.66-2.157-4.818-4.818-4.818S100.062,544.425,100.062,547.085z
	 M185.102,547.085c0,2.662,2.157,4.818,4.818,4.818c2.662,0,4.819-2.156,4.819-4.818c0-2.66-2.157-4.818-4.819-4.818
	C187.26,542.267,185.102,544.425,185.102,547.085z M278.645,547.085c0,2.662,2.157,4.818,4.818,4.818
	c2.662,0,4.819-2.156,4.819-4.818c0-2.66-2.157-4.818-4.819-4.818C280.803,542.267,278.645,544.425,278.645,547.085z
	 M372.188,547.085c0,2.662,2.158,4.818,4.819,4.818s4.819-2.156,4.819-4.818c0-2.66-2.158-4.818-4.819-4.818
	S372.188,544.425,372.188,547.085z M457.227,547.085c0,2.662,2.158,4.818,4.819,4.818s4.819-2.156,4.819-4.818
	c0-2.66-2.158-4.818-4.819-4.818S457.227,544.425,457.227,547.085z M542.267,547.085c0,2.662,2.157,4.818,4.819,4.818
	c2.661,0,4.817-2.156,4.817-4.818c0-2.66-2.156-4.818-4.817-4.818S542.267,544.425,542.267,547.085z M547.087,466.865
	c2.661,0,4.817-2.156,4.817-4.818s-2.156-4.818-4.817-4.818c-2.662,0-4.819,2.156-4.819,4.818
	C542.267,464.708,544.425,466.865,547.087,466.865z M547.087,381.826c2.661,0,4.817-2.157,4.817-4.818
	c0-2.662-2.156-4.819-4.817-4.819c-2.662,0-4.819,2.157-4.819,4.819C542.267,379.669,544.425,381.826,547.087,381.826z
	 M547.087,288.283c2.661,0,4.817-2.158,4.817-4.819s-2.156-4.819-4.817-4.819c-2.662,0-4.819,2.158-4.819,4.819
	S544.425,288.283,547.087,288.283z M547.087,194.74c2.661,0,4.817-2.158,4.817-4.819s-2.156-4.819-4.817-4.819
	c-2.662,0-4.819,2.158-4.819,4.819S544.425,194.74,547.087,194.74z M547.087,109.7c2.661,0,4.817-2.157,4.817-4.819
	c0-2.661-2.156-4.818-4.817-4.818c-2.662,0-4.819,2.157-4.819,4.818C542.267,107.543,544.425,109.7,547.087,109.7z M547.087,24.661
	c2.661,0,4.817-2.157,4.817-4.819c0-2.661-2.156-4.818-4.817-4.818c-2.662,0-4.819,2.157-4.819,4.818
	C542.267,22.504,544.425,24.661,547.087,24.661z M24.661,19.842c0-2.661-2.157-4.818-4.818-4.818c-2.662,0-4.818,2.157-4.818,4.818
	c0,2.662,2.156,4.819,4.818,4.819C22.504,24.661,24.661,22.504,24.661,19.842z M490.393,220.252c2.661,0,4.818-2.158,4.818-4.819
	c0-2.661-2.157-4.819-4.818-4.819c-2.662,0-4.817,2.158-4.817,4.819C485.575,218.094,487.731,220.252,490.393,220.252z
	 M76.535,72.85c2.661,0,4.818-2.157,4.818-4.818c0-2.662-2.157-4.819-4.818-4.819s-4.818,2.157-4.818,4.819
	C71.717,70.692,73.874,72.85,76.535,72.85z M490.393,72.85c2.661,0,4.818-2.157,4.818-4.818c0-2.662-2.157-4.819-4.818-4.819
	c-2.662,0-4.817,2.157-4.817,4.819C485.575,70.692,487.731,72.85,490.393,72.85z M81.354,215.433c0-2.661-2.157-4.819-4.818-4.819
	s-4.818,2.158-4.818,4.819c0,2.661,2.157,4.819,4.818,4.819S81.354,218.094,81.354,215.433z"/>
</svg>
