<?xml version="1.0" encoding="utf-8"?>
<!-- Generator: Adobe Illustrator 16.0.4, SVG Export Plug-In . SVG Version: 6.00 Build 0)  -->
<!DOCTYPE svg PUBLIC "-//W3C//DTD SVG 1.1//EN" "http://www.w3.org/Graphics/SVG/1.1/DTD/svg11.dtd">
<svg version="1.1" id="レイヤー_1" xmlns="http://www.w3.org/2000/svg" xmlns:xlink="http://www.w3.org/1999/xlink" x="0px"
	 y="0px" width="595.28px" height="841.89px" viewBox="0 0 595.28 841.89" enable-background="new 0 0 595.28 841.89"
	 xml:space="preserve">
<path fill="none" stroke="#004080" stroke-linecap="round" stroke-linejoin="round" d="M121.035,10v274.96H22.344V10H121.035z"/>
<path fill="none" stroke="#000000" stroke-linecap="round" stroke-linejoin="round" d="M37.367,21.338
	c0-2.661,2.157-4.818,4.818-4.818c2.662,0,4.819,2.157,4.819,4.818c0,2.662-2.157,4.819-4.819,4.819
	C39.524,26.158,37.367,24,37.367,21.338z M42.186,278.441c2.662,0,4.819-2.157,4.819-4.818c0-2.662-2.157-4.819-4.819-4.819
	c-2.661,0-4.818,2.157-4.818,4.819C37.367,276.284,39.524,278.441,42.186,278.441z M109.696,278.441
	c2.662,0,4.819-2.157,4.819-4.818c0-2.662-2.157-4.819-4.819-4.819c-2.661,0-4.818,2.157-4.818,4.819
	C104.878,276.284,107.035,278.441,109.696,278.441z M109.696,26.158c2.662,0,4.819-2.157,4.819-4.819
	c0-2.661-2.157-4.818-4.819-4.818c-2.661,0-4.818,2.157-4.818,4.818C104.878,24,107.035,26.158,109.696,26.158z"/>
</svg>
