<?xml version="1.0" encoding="utf-8"?>
<!-- Generator: Adobe Illustrator 16.0.4, SVG Export Plug-In . SVG Version: 6.00 Build 0)  -->
<!DOCTYPE svg PUBLIC "-//W3C//DTD SVG 1.1//EN" "http://www.w3.org/Graphics/SVG/1.1/DTD/svg11.dtd">
<svg version="1.1" id="レイヤー_1" xmlns="http://www.w3.org/2000/svg" xmlns:xlink="http://www.w3.org/1999/xlink" x="0px"
	 y="0px" width="595.279px" height="841.89px" viewBox="0 0 595.279 841.89" enable-background="new 0 0 595.279 841.89"
	 xml:space="preserve">
<rect x="0" y="115.229" fill="none" stroke="#004080" stroke-linecap="round" stroke-linejoin="round" width="96.378" height="96.377"/>
<rect x="0" fill="none" stroke="#004080" stroke-linecap="round" stroke-linejoin="round" width="96.378" height="96.377"/>
<path fill="none" stroke="#000000" stroke-linecap="round" stroke-linejoin="round" d="M85.04,205.086
	c-2.662,0-4.819-2.156-4.819-4.818c0-2.662,2.157-4.818,4.819-4.818c2.66,0,4.817,2.156,4.817,4.818
	C89.858,202.93,87.7,205.086,85.04,205.086z M16.156,200.268c0-2.662-2.156-4.818-4.817-4.818s-4.818,2.156-4.818,4.818
	c0,2.662,2.157,4.818,4.818,4.818S16.156,202.93,16.156,200.268z M16.156,126.567c0-2.66-2.156-4.818-4.817-4.818
	s-4.818,2.158-4.818,4.818c0,2.662,2.157,4.818,4.818,4.818S16.156,129.229,16.156,126.567z M89.859,126.567
	c0-2.66-2.157-4.818-4.817-4.818c-2.662,0-4.819,2.158-4.819,4.818c0,2.662,2.157,4.818,4.819,4.818
	C87.7,131.385,89.859,129.229,89.859,126.567z M77.235,152.078c-6.262-16.041-24.343-23.969-40.385-17.707
	c-16.042,6.262-23.97,24.342-17.708,40.385c6.263,16.041,24.343,23.971,40.386,17.707C75.569,186.201,83.498,168.121,77.235,152.078
	z M92.693,163.418c0-2.662-2.157-4.82-4.818-4.82s-4.818,2.158-4.818,4.82c0,2.66,2.157,4.818,4.818,4.818
	S92.693,166.078,92.693,163.418z M48.19,118.914c-2.661,0-4.818,2.156-4.818,4.818s2.157,4.818,4.818,4.818s4.819-2.156,4.819-4.818
	S50.851,118.914,48.19,118.914z M3.686,163.418c0,2.66,2.157,4.818,4.818,4.818s4.818-2.158,4.818-4.818
	c0-2.662-2.157-4.82-4.818-4.82S3.686,160.756,3.686,163.418z M48.19,207.922c2.661,0,4.819-2.158,4.819-4.82
	c0-2.66-2.158-4.818-4.819-4.818s-4.818,2.158-4.818,4.818C43.369,205.764,45.528,207.922,48.19,207.922z"/>
<path fill="none" stroke="#000000" stroke-linecap="round" stroke-linejoin="round" d="M16.156,11.338
	c0-2.66-2.156-4.818-4.818-4.818c-2.66,0-4.818,2.158-4.818,4.818c0,2.662,2.158,4.82,4.818,4.82C14,16.158,16.156,14,16.156,11.338
	z M89.857,11.338c0-2.66-2.157-4.818-4.818-4.818s-4.818,2.158-4.818,4.818c0,2.662,2.157,4.82,4.818,4.82S89.857,14,89.857,11.338z
	 M89.857,85.039c0-2.662-2.157-4.818-4.818-4.818s-4.818,2.156-4.818,4.818c0,2.662,2.157,4.818,4.818,4.818
	C87.7,89.858,89.857,87.701,89.857,85.039z M16.156,85.039c0-2.662-2.156-4.818-4.818-4.818c-2.66,0-4.818,2.156-4.818,4.818
	c0,2.662,2.158,4.818,4.818,4.818C14,89.858,16.156,87.701,16.156,85.039z M79.37,48.19c0-17.221-13.961-31.182-31.183-31.182
	c-17.221,0-31.181,13.961-31.181,31.182s13.96,31.18,31.181,31.18C65.409,79.369,79.37,65.41,79.37,48.19z M79.37,48.19
	c0-17.221-13.961-31.182-31.183-31.182c-17.221,0-31.181,13.961-31.181,31.182s13.96,31.18,31.181,31.18
	C65.409,79.369,79.37,65.41,79.37,48.19z"/>
</svg>
