<?xml version="1.0" encoding="utf-8"?>
<!-- Generator: Adobe Illustrator 16.0.4, SVG Export Plug-In . SVG Version: 6.00 Build 0)  -->
<!DOCTYPE svg PUBLIC "-//W3C//DTD SVG 1.1//EN" "http://www.w3.org/Graphics/SVG/1.1/DTD/svg11.dtd">
<svg version="1.1" id="レイヤー_1" xmlns="http://www.w3.org/2000/svg" xmlns:xlink="http://www.w3.org/1999/xlink" x="0px"
	 y="0px" width="595.279px" height="841.89px" viewBox="0 0 595.279 841.89" enable-background="new 0 0 595.279 841.89"
	 xml:space="preserve">
<rect x="0" fill="none" stroke="#E60012" stroke-linecap="round" stroke-linejoin="round" width="181.418" height="566.931"/>
<path fill="none" stroke="#000000" stroke-linecap="round" stroke-linejoin="round" d="M6.521,19.843c0-2.662,2.158-4.82,4.82-4.82
	c2.659,0,4.816,2.158,4.816,4.82c0,2.66-2.157,4.818-4.818,4.818C8.678,24.662,6.521,22.504,6.521,19.843z M11.339,109.701
	c2.661,0,4.818-2.158,4.818-4.818c0-2.662-2.157-4.82-4.818-4.82s-4.818,2.158-4.818,4.82
	C6.521,107.543,8.678,109.701,11.339,109.701z M11.339,194.74c2.661,0,4.818-2.158,4.818-4.818c0-2.662-2.157-4.82-4.818-4.82
	s-4.818,2.158-4.818,4.82C6.521,192.582,8.678,194.74,11.339,194.74z M11.339,288.283c2.661,0,4.818-2.156,4.818-4.818
	s-2.157-4.818-4.818-4.818s-4.818,2.156-4.818,4.818S8.678,288.283,11.339,288.283z M11.339,381.826
	c2.661,0,4.818-2.156,4.818-4.818S14,372.19,11.339,372.19s-4.818,2.156-4.818,4.818S8.678,381.826,11.339,381.826z M11.339,466.865
	c2.661,0,4.818-2.156,4.818-4.818c0-2.658-2.157-4.816-4.818-4.816s-4.818,2.158-4.818,4.816
	C6.521,464.708,8.678,466.865,11.339,466.865z M11.339,551.906c2.661,0,4.818-2.158,4.818-4.82c0-2.658-2.157-4.816-4.818-4.816
	s-4.818,2.158-4.818,4.816C6.521,549.748,8.678,551.906,11.339,551.906z M170.079,551.906c2.66,0,4.818-2.158,4.818-4.82
	c0-2.658-2.158-4.816-4.818-4.816c-2.662,0-4.818,2.158-4.818,4.816C165.261,549.748,167.417,551.906,170.079,551.906z
	 M170.079,466.865c2.66,0,4.818-2.156,4.818-4.818c0-2.658-2.158-4.816-4.818-4.816c-2.662,0-4.818,2.158-4.818,4.816
	C165.261,464.708,167.417,466.865,170.079,466.865z M170.079,381.826c2.66,0,4.818-2.156,4.818-4.818s-2.158-4.818-4.818-4.818
	c-2.662,0-4.818,2.156-4.818,4.818S167.417,381.826,170.079,381.826z M170.079,288.283c2.66,0,4.818-2.156,4.818-4.818
	s-2.158-4.818-4.818-4.818c-2.662,0-4.818,2.156-4.818,4.818S167.417,288.283,170.079,288.283z M170.079,194.74
	c2.66,0,4.818-2.158,4.818-4.818c0-2.662-2.158-4.82-4.818-4.82c-2.662,0-4.818,2.158-4.818,4.82
	C165.261,192.582,167.417,194.74,170.079,194.74z M170.079,109.701c2.66,0,4.818-2.158,4.818-4.818c0-2.662-2.158-4.82-4.818-4.82
	c-2.662,0-4.818,2.158-4.818,4.82C165.261,107.543,167.417,109.701,170.079,109.701z M170.079,24.662
	c2.66,0,4.818-2.158,4.818-4.818c0-2.662-2.157-4.82-4.817-4.82c-2.662,0-4.819,2.158-4.819,4.82
	C165.261,22.504,167.417,24.662,170.079,24.662z M90.708,340.158c31.312,0,56.693-25.383,56.693-56.693
	s-25.383-56.693-56.693-56.693c-31.31,0-56.691,25.383-56.691,56.693S59.399,340.158,90.708,340.158z"/>
</svg>
