<?xml version="1.0" encoding="utf-8"?>
<!-- Generator: Adobe Illustrator 16.0.4, SVG Export Plug-In . SVG Version: 6.00 Build 0)  -->
<!DOCTYPE svg PUBLIC "-//W3C//DTD SVG 1.1//EN" "http://www.w3.org/Graphics/SVG/1.1/DTD/svg11.dtd">
<svg version="1.1" id="レイヤー_1" xmlns="http://www.w3.org/2000/svg" xmlns:xlink="http://www.w3.org/1999/xlink" x="0px"
	 y="0px" width="595.279px" height="841.89px" viewBox="0 0 595.279 841.89" enable-background="new 0 0 595.279 841.89"
	 xml:space="preserve">
<path fill="none" stroke="#E60012" stroke-linecap="round" stroke-linejoin="round" d="M289.134,98.691L92.181,295.649H72.135
	L0,223.466V0h289.134V98.691z"/>
<path fill="none" stroke="#000000" stroke-linecap="round" stroke-linejoin="round" d="M19.843,207.309
	c2.662,0,4.819,2.157,4.819,4.818c0,2.662-2.157,4.819-4.819,4.819c-2.661,0-4.818-2.158-4.818-4.819
	C15.024,209.466,17.182,207.309,19.843,207.309z M15.024,111.733c0,2.661,2.157,4.819,4.818,4.819c2.662,0,4.819-2.158,4.819-4.819
	c0-2.662-2.157-4.819-4.819-4.819C17.182,106.914,15.024,109.071,15.024,111.733z M15.024,19.843c0,2.661,2.157,4.818,4.818,4.818
	c2.662,0,4.819-2.157,4.819-4.818c0-2.662-2.157-4.819-4.819-4.819C17.182,15.023,15.024,17.181,15.024,19.843z M139.748,19.843
	c0,2.661,2.158,4.818,4.818,4.818c2.661,0,4.819-2.157,4.819-4.818c0-2.662-2.158-4.819-4.819-4.819
	C141.906,15.024,139.748,17.181,139.748,19.843z M264.473,19.843c0,2.661,2.157,4.818,4.818,4.818c2.662,0,4.818-2.157,4.818-4.818
	c0-2.662-2.156-4.819-4.818-4.819C266.63,15.023,264.473,17.181,264.473,19.843z M264.473,87.353c0,2.662,2.157,4.819,4.818,4.819
	c2.662,0,4.818-2.157,4.818-4.819c0-2.661-2.156-4.818-4.818-4.818C266.63,82.534,264.473,84.691,264.473,87.353z M167.562,139.533
	c-3.878-3.873-7.756-7.745-11.634-11.618c2.871-2.875,5.742-5.75,8.613-8.625c2.323-2.326,2.32-6.095-0.006-8.418
	c-2.326-2.323-6.097-2.32-8.419,0.006c-2.871,2.875-5.741,5.75-8.612,8.625c-2.407-2.404-4.813-4.808-7.222-7.211
	c-27.642,27.68-55.283,55.359-82.926,83.039c2.407,2.403,4.814,4.807,7.222,7.211c-2.87,2.875-5.741,5.75-8.612,8.625
	c-2.323,2.326-2.32,6.095,0.006,8.418c2.326,2.323,6.095,2.32,8.418-0.006c2.871-2.875,5.742-5.75,8.613-8.625
	c3.878,3.873,7.756,7.745,11.633,11.618c-2.871,2.875-5.742,5.75-8.612,8.625c-2.322,2.326-2.319,6.095,0.007,8.418
	c2.325,2.323,6.095,2.32,8.418-0.006c2.87-2.875,5.741-5.75,8.612-8.625c2.407,2.404,4.813,4.808,7.222,7.211
	c27.642-27.68,55.282-55.359,82.925-83.039c-2.406-2.404-4.813-4.807-7.221-7.211c2.87-2.875,5.741-5.75,8.612-8.625
	c2.323-2.327,2.32-6.096-0.006-8.419c-2.326-2.323-6.096-2.32-8.418,0.006C173.305,133.783,170.433,136.658,167.562,139.533z"/>
</svg>
