<?xml version="1.0" encoding="utf-8"?>
<!-- Generator: Adobe Illustrator 16.0.4, SVG Export Plug-In . SVG Version: 6.00 Build 0)  -->
<!DOCTYPE svg PUBLIC "-//W3C//DTD SVG 1.1//EN" "http://www.w3.org/Graphics/SVG/1.1/DTD/svg11.dtd">
<svg version="1.1" id="レイヤー_1" xmlns="http://www.w3.org/2000/svg" xmlns:xlink="http://www.w3.org/1999/xlink" x="0px"
	 y="0px" width="595.279px" height="841.89px" viewBox="0 0 595.279 841.89" enable-background="new 0 0 595.279 841.89"
	 xml:space="preserve">
<path fill="none" stroke="#004080" stroke-linecap="round" stroke-linejoin="round" d="M0,113.904V0h228.473v113.904H0z
	 M228.472,237.543V123.637H0v113.905L228.472,237.543L228.472,237.543z M228.472,249.078H0V390.81h228.473L228.472,249.078
	L228.472,249.078z"/>
<path fill="none" stroke="#000000" stroke-linecap="round" stroke-linejoin="round" d="M221.953,94.061
	c0,2.661-2.158,4.819-4.818,4.819c-2.662,0-4.819-2.158-4.819-4.819c0-2.661,2.157-4.819,4.819-4.819
	C219.795,89.242,221.953,91.4,221.953,94.061z M160.442,15.023c-2.662,0-4.818,2.157-4.818,4.818c0,2.662,2.156,4.819,4.818,4.819
	s4.817-2.157,4.817-4.819C165.259,17.18,163.104,15.023,160.442,15.023z M217.134,15.023c-2.662,0-4.819,2.157-4.819,4.818
	c0,2.662,2.157,4.819,4.819,4.819c2.66,0,4.818-2.157,4.818-4.819C221.953,17.18,219.795,15.023,217.134,15.023z M48.19,61.77
	c2.662,0,4.817-2.157,4.817-4.818c0-2.662-2.155-4.819-4.817-4.819s-4.818,2.157-4.818,4.819
	C43.371,59.613,45.528,61.77,48.19,61.77z M160.442,138.662c-2.662,0-4.818,2.156-4.818,4.818c0,2.661,2.156,4.818,4.818,4.818
	s4.817-2.157,4.817-4.818C165.259,140.818,163.104,138.662,160.442,138.662z M217.134,138.662c-2.662,0-4.819,2.156-4.819,4.818
	c0,2.661,2.157,4.818,4.819,4.818c2.66,0,4.818-2.157,4.818-4.818C221.953,140.818,219.795,138.662,217.134,138.662z
	 M217.134,212.881c-2.662,0-4.819,2.157-4.819,4.819c0,2.661,2.157,4.818,4.819,4.818c2.66,0,4.818-2.157,4.818-4.818
	C221.953,215.038,219.795,212.881,217.134,212.881z M48.19,194.763c7.827,0,14.174-6.346,14.174-14.174
	c0-7.827-6.347-14.173-14.174-14.173c-7.828,0-14.175,6.346-14.175,14.173C34.015,188.418,40.362,194.763,48.19,194.763z
	 M48.19,214.888c2.504,0,4.534-2.029,4.534-4.535c0-2.505-2.03-4.535-4.534-4.535c-2.507,0-4.535,2.03-4.535,4.535
	C43.655,212.859,45.683,214.888,48.19,214.888z M48.19,155.361c2.504,0,4.534-2.03,4.534-4.535s-2.03-4.535-4.534-4.535
	c-2.507,0-4.535,2.03-4.535,4.535S45.683,155.361,48.19,155.361z M217.133,374.653c-2.661,0-4.818,2.157-4.818,4.818
	c0,2.662,2.157,4.819,4.818,4.819s4.819-2.157,4.819-4.819C221.953,376.81,219.795,374.653,217.133,374.653z M217.133,255.597
	c-2.661,0-4.818,2.157-4.818,4.819c0,2.661,2.157,4.818,4.818,4.818s4.819-2.157,4.819-4.818
	C221.953,257.755,219.795,255.597,217.133,255.597z M160.442,255.597c-2.662,0-4.819,2.157-4.819,4.819
	c0,2.661,2.157,4.818,4.819,4.818c2.661,0,4.817-2.157,4.817-4.818C165.259,257.755,163.103,255.597,160.442,255.597z
	 M160.442,374.653c-2.662,0-4.819,2.157-4.819,4.818c0,2.662,2.157,4.819,4.819,4.819c2.661,0,4.817-2.157,4.817-4.819
	C165.259,376.81,163.103,374.653,160.442,374.653z M47.623,311.723c0,5.48,0,10.961,0,16.441c-4.063,0-8.127,0-12.188,0
	c-3.287,0-5.953,2.665-5.953,5.952c0,3.288,2.666,5.953,5.953,5.953c4.062,0,8.125,0,12.188,0c0,3.401,0,6.804,0,10.205
	c39.117,0,78.235,0,117.354,0c0-3.401,0-6.804,0-10.205c4.062,0,8.126,0,12.188,0c3.288,0,5.953-2.665,5.953-5.953
	c0-3.287-2.665-5.952-5.953-5.952c-4.062,0-8.126,0-12.188,0c0-5.48,0-10.961,0-16.441c4.062,0,8.126,0,12.188,0
	c3.288,0,5.953-2.665,5.953-5.952c0-3.288-2.665-5.953-5.953-5.953c-4.062,0-8.126,0-12.188,0c0-3.401,0-6.804,0-10.205
	c-39.118,0-78.236,0-117.354,0c0,3.401,0,6.804,0,10.205c-4.063,0-8.127,0-12.188,0c-3.287,0-5.953,2.665-5.953,5.953
	c0,3.287,2.666,5.952,5.953,5.952C39.496,311.723,43.558,311.723,47.623,311.723z"/>
</svg>
