<?xml version="1.0" encoding="utf-8"?>
<!-- Generator: Adobe Illustrator 16.0.4, SVG Export Plug-In . SVG Version: 6.00 Build 0)  -->
<!DOCTYPE svg PUBLIC "-//W3C//DTD SVG 1.1//EN" "http://www.w3.org/Graphics/SVG/1.1/DTD/svg11.dtd">
<svg version="1.1" id="レイヤー_1" xmlns="http://www.w3.org/2000/svg" xmlns:xlink="http://www.w3.org/1999/xlink" x="0px"
	 y="0px" width="595.28px" height="841.89px" viewBox="0 0 595.28 841.89" enable-background="new 0 0 595.28 841.89"
	 xml:space="preserve">
<path fill="none" stroke="#004080" stroke-linecap="round" stroke-linejoin="round" d="M15.639,128.542V14.638h228.473v113.904
	H15.639z M244.111,252.181V138.275H15.639v113.905H244.111z M244.111,263.716H15.639v141.732h228.473V263.716z"/>
<path fill="none" stroke="#000000" stroke-linecap="round" stroke-linejoin="round" d="M237.592,108.699
	c0,2.661-2.158,4.819-4.818,4.819c-2.662,0-4.82-2.158-4.82-4.819s2.158-4.819,4.82-4.819
	C235.434,103.88,237.592,106.038,237.592,108.699z M176.08,29.661c-2.662,0-4.818,2.157-4.818,4.818
	c0,2.662,2.156,4.819,4.818,4.819s4.818-2.157,4.818-4.819C180.898,31.818,178.742,29.661,176.08,29.661z M232.773,29.661
	c-2.662,0-4.82,2.157-4.82,4.818c0,2.662,2.158,4.819,4.82,4.819c2.66,0,4.818-2.157,4.818-4.819
	C237.592,31.818,235.434,29.661,232.773,29.661z M63.828,76.408c2.662,0,4.818-2.157,4.818-4.818c0-2.662-2.156-4.819-4.818-4.819
	s-4.818,2.157-4.818,4.819C59.01,74.251,61.166,76.408,63.828,76.408z M176.08,153.3c-2.662,0-4.818,2.156-4.818,4.818
	c0,2.661,2.156,4.818,4.818,4.818s4.818-2.157,4.818-4.818C180.898,155.456,178.742,153.3,176.08,153.3z M232.773,153.3
	c-2.662,0-4.82,2.156-4.82,4.818c0,2.661,2.158,4.818,4.82,4.818c2.66,0,4.818-2.157,4.818-4.818
	C237.592,155.456,235.434,153.3,232.773,153.3z M232.773,227.519c-2.662,0-4.82,2.157-4.82,4.819c0,2.661,2.158,4.818,4.82,4.818
	c2.66,0,4.818-2.157,4.818-4.818C237.592,229.676,235.434,227.519,232.773,227.519z M63.828,209.401
	c7.828,0,14.174-6.346,14.174-14.174c0-7.827-6.346-14.173-14.174-14.173s-14.174,6.346-14.174,14.173
	C49.654,203.056,56,209.401,63.828,209.401z M63.828,229.526c2.504,0,4.535-2.029,4.535-4.535c0-2.505-2.031-4.535-4.535-4.535
	c-2.506,0-4.535,2.03-4.535,4.535C59.293,227.497,61.322,229.526,63.828,229.526z M63.828,169.999c2.504,0,4.535-2.03,4.535-4.535
	s-2.031-4.535-4.535-4.535c-2.506,0-4.535,2.03-4.535,4.535S61.322,169.999,63.828,169.999z M232.772,389.291
	c-2.661,0-4.819,2.157-4.819,4.818c0,2.662,2.158,4.819,4.819,4.819s4.819-2.157,4.819-4.819
	C237.592,391.448,235.434,389.291,232.772,389.291z M232.772,270.235c-2.661,0-4.819,2.157-4.819,4.819
	c0,2.661,2.158,4.818,4.819,4.818s4.819-2.157,4.819-4.818C237.592,272.393,235.434,270.235,232.772,270.235z M176.08,270.235
	c-2.662,0-4.819,2.157-4.819,4.819c0,2.661,2.157,4.818,4.819,4.818c2.661,0,4.818-2.157,4.818-4.818
	C180.898,272.393,178.741,270.235,176.08,270.235z M176.08,389.291c-2.662,0-4.819,2.157-4.819,4.818
	c0,2.662,2.157,4.819,4.819,4.819c2.661,0,4.818-2.157,4.818-4.819C180.898,391.448,178.741,389.291,176.08,389.291z
	 M63.262,326.361c0,5.48,0,10.961,0,16.441c-4.064,0-8.127,0-12.189,0c-3.287,0-5.953,2.665-5.953,5.952
	c0,3.288,2.666,5.953,5.953,5.953c4.062,0,8.125,0,12.189,0c0,3.401,0,6.804,0,10.205c39.117,0,78.235,0,117.354,0
	c0-3.401,0-6.804,0-10.205c4.062,0,8.126,0,12.188,0c3.288,0,5.953-2.665,5.953-5.953c0-3.287-2.665-5.952-5.953-5.952
	c-4.062,0-8.126,0-12.188,0c0-5.48,0-10.961,0-16.441c4.062,0,8.126,0,12.188,0c3.288,0,5.953-2.665,5.953-5.952
	c0-3.288-2.665-5.953-5.953-5.953c-4.062,0-8.126,0-12.188,0c0-3.401,0-6.804,0-10.205c-39.118,0-78.236,0-117.354,0
	c0,3.401,0,6.804,0,10.205c-4.064,0-8.127,0-12.189,0c-3.287,0-5.953,2.665-5.953,5.953c0,3.287,2.666,5.952,5.953,5.952
	C55.135,326.361,59.197,326.361,63.262,326.361z"/>
</svg>
