<?xml version="1.0" encoding="utf-8"?>
<!-- Generator: Adobe Illustrator 16.0.4, SVG Export Plug-In . SVG Version: 6.00 Build 0)  -->
<!DOCTYPE svg PUBLIC "-//W3C//DTD SVG 1.1//EN" "http://www.w3.org/Graphics/SVG/1.1/DTD/svg11.dtd">
<svg version="1.1" id="レイヤー_1" xmlns="http://www.w3.org/2000/svg" xmlns:xlink="http://www.w3.org/1999/xlink" x="0px"
	 y="0px" width="595.279px" height="841.89px" viewBox="0 0 595.279 841.89" enable-background="new 0 0 595.279 841.89"
	 xml:space="preserve">
<path fill="none" stroke="#E60012" stroke-linecap="round" stroke-linejoin="round" d="M154.772,202.073H0V0h154.771
	L154.772,202.073L154.772,202.073z"/>
<path fill="none" stroke="#000000" stroke-linecap="round" stroke-linejoin="round" d="M11.338,16.157
	c-2.661,0-4.818-2.157-4.818-4.819c0-2.662,2.157-4.819,4.818-4.819c2.662,0,4.818,2.157,4.818,4.819
	C16.156,14,14,16.157,11.338,16.157z M16.156,101.036c0-2.662-2.156-4.819-4.818-4.819c-2.661,0-4.818,2.157-4.818,4.819
	s2.157,4.819,4.818,4.819C14,105.855,16.156,103.698,16.156,101.036z M16.156,190.734c0-2.661-2.156-4.818-4.818-4.818
	c-2.661,0-4.818,2.157-4.818,4.818c0,2.662,2.157,4.819,4.818,4.819C14,195.554,16.156,193.396,16.156,190.734z M148.252,190.734
	c0-2.661-2.158-4.818-4.819-4.818s-4.819,2.157-4.819,4.818c0,2.662,2.158,4.819,4.819,4.819S148.252,193.396,148.252,190.734z
	 M148.252,101.036c0-2.662-2.158-4.819-4.819-4.819s-4.819,2.157-4.819,4.819s2.158,4.819,4.819,4.819
	S148.252,103.698,148.252,101.036z M148.252,11.338c0-2.662-2.158-4.819-4.819-4.819s-4.819,2.157-4.819,4.819
	c0,2.662,2.158,4.819,4.819,4.819S148.252,14,148.252,11.338z"/>
</svg>
