<?xml version="1.0" encoding="utf-8"?>
<!-- Generator: Adobe Illustrator 16.0.4, SVG Export Plug-In . SVG Version: 6.00 Build 0)  -->
<!DOCTYPE svg PUBLIC "-//W3C//DTD SVG 1.1//EN" "http://www.w3.org/Graphics/SVG/1.1/DTD/svg11.dtd">
<svg version="1.1" id="レイヤー_1" xmlns="http://www.w3.org/2000/svg" xmlns:xlink="http://www.w3.org/1999/xlink" x="0px"
	 y="0px" width="595.28px" height="841.89px" viewBox="0 0 595.28 841.89" enable-background="new 0 0 595.28 841.89"
	 xml:space="preserve">
<rect x="23.808" y="6.684" fill="none" stroke="#E60012" stroke-linecap="round" stroke-linejoin="round" width="181.416" height="549.922"/>
<path fill="none" stroke="#000000" stroke-linecap="round" stroke-linejoin="round" d="M189.067,18.023
	c0-2.662,2.157-4.82,4.819-4.82s4.817,2.158,4.817,4.82c0,2.66-2.156,4.818-4.818,4.818
	C191.224,22.842,189.067,20.684,189.067,18.023z M193.885,107.881c2.662,0,4.818-2.157,4.818-4.818c0-2.662-2.156-4.819-4.818-4.819
	c-2.661,0-4.818,2.157-4.818,4.819C189.067,105.724,191.224,107.881,193.885,107.881z M193.885,192.92
	c2.662,0,4.818-2.157,4.818-4.818s-2.156-4.819-4.818-4.819c-2.661,0-4.818,2.158-4.818,4.819S191.224,192.92,193.885,192.92z
	 M193.885,286.464c2.662,0,4.818-2.157,4.818-4.819c0-2.661-2.156-4.818-4.818-4.818c-2.661,0-4.818,2.157-4.818,4.818
	C189.067,284.307,191.224,286.464,193.885,286.464z M193.885,380.007c2.662,0,4.818-2.157,4.818-4.819
	c0-2.661-2.156-4.818-4.818-4.818c-2.661,0-4.818,2.157-4.818,4.818C189.067,377.85,191.224,380.007,193.885,380.007z
	 M193.885,465.046c2.662,0,4.818-2.157,4.818-4.818s-2.156-4.819-4.818-4.819c-2.661,0-4.818,2.158-4.818,4.819
	S191.224,465.046,193.885,465.046z M193.885,550.086c2.662,0,4.818-2.158,4.818-4.819s-2.156-4.819-4.818-4.819
	c-2.661,0-4.818,2.158-4.818,4.819S191.224,550.086,193.885,550.086z M35.145,550.086c2.662,0,4.818-2.158,4.818-4.819
	s-2.156-4.819-4.818-4.819c-2.661,0-4.818,2.158-4.818,4.819S32.484,550.086,35.145,550.086z M35.145,465.046
	c2.662,0,4.818-2.157,4.818-4.818s-2.156-4.819-4.818-4.819c-2.661,0-4.818,2.158-4.818,4.819S32.484,465.046,35.145,465.046z
	 M35.145,380.007c2.662,0,4.818-2.157,4.818-4.819c0-2.661-2.156-4.818-4.818-4.818c-2.661,0-4.818,2.157-4.818,4.818
	C30.327,377.85,32.484,380.007,35.145,380.007z M35.145,286.464c2.662,0,4.818-2.157,4.818-4.819c0-2.661-2.156-4.818-4.818-4.818
	c-2.661,0-4.818,2.157-4.818,4.818C30.327,284.307,32.484,286.464,35.145,286.464z M35.145,192.92c2.662,0,4.818-2.157,4.818-4.818
	s-2.156-4.819-4.818-4.819c-2.661,0-4.818,2.158-4.818,4.819S32.484,192.92,35.145,192.92z M35.145,107.881
	c2.662,0,4.818-2.157,4.818-4.818c0-2.662-2.156-4.819-4.818-4.819c-2.661,0-4.818,2.157-4.818,4.819
	C30.327,105.724,32.484,107.881,35.145,107.881z M35.145,22.842c2.662,0,4.818-2.158,4.818-4.818c0-2.662-2.155-4.82-4.817-4.82
	s-4.819,2.158-4.819,4.82C30.327,20.684,32.484,22.842,35.145,22.842z"/>
</svg>
