<?xml version="1.0" encoding="utf-8"?>
<!-- Generator: Adobe Illustrator 16.0.4, SVG Export Plug-In . SVG Version: 6.00 Build 0)  -->
<!DOCTYPE svg PUBLIC "-//W3C//DTD SVG 1.1//EN" "http://www.w3.org/Graphics/SVG/1.1/DTD/svg11.dtd">
<svg version="1.1" id="レイヤー_1" xmlns="http://www.w3.org/2000/svg" xmlns:xlink="http://www.w3.org/1999/xlink" x="0px"
	 y="0px" width="595.279px" height="841.89px" viewBox="0 0 595.279 841.89" enable-background="new 0 0 595.279 841.89"
	 xml:space="preserve">
<path fill="none" stroke="#004080" stroke-linecap="round" stroke-linejoin="round" d="M0,566.929V0h566.929v566.929H0z"/>
<path fill="none" stroke="#000000" stroke-linecap="round" stroke-linejoin="round" d="M542.267,19.843
	c0-2.662,2.157-4.819,4.818-4.819c2.662,0,4.818,2.157,4.818,4.819c0,2.661-2.156,4.818-4.818,4.818
	C544.425,24.661,542.267,22.504,542.267,19.843z M547.086,109.702c2.662,0,4.818-2.157,4.818-4.819c0-2.661-2.156-4.818-4.818-4.818
	c-2.661,0-4.818,2.157-4.818,4.818C542.267,107.544,544.425,109.702,547.086,109.702z M547.086,194.741
	c2.662,0,4.818-2.157,4.818-4.819c0-2.661-2.156-4.818-4.818-4.818c-2.661,0-4.818,2.157-4.818,4.818
	C542.267,192.583,544.425,194.741,547.086,194.741z M547.086,288.285c2.662,0,4.818-2.158,4.818-4.819s-2.156-4.819-4.818-4.819
	c-2.661,0-4.818,2.158-4.818,4.819S544.425,288.285,547.086,288.285z M547.086,381.827c2.662,0,4.818-2.158,4.818-4.819
	c0-2.661-2.156-4.819-4.818-4.819c-2.661,0-4.818,2.158-4.818,4.819C542.268,379.669,544.425,381.827,547.086,381.827z
	 M547.086,466.867c2.662,0,4.818-2.156,4.818-4.816c0-2.662-2.156-4.82-4.818-4.82c-2.661,0-4.818,2.158-4.818,4.82
	C542.267,464.708,544.425,466.867,547.086,466.867z M542.267,547.087c0,2.662,2.157,4.818,4.818,4.818
	c2.662,0,4.818-2.156,4.818-4.818s-2.156-4.818-4.818-4.818C544.425,542.269,542.267,544.425,542.267,547.087z M457.227,547.087
	c0,2.662,2.158,4.818,4.819,4.818s4.819-2.156,4.819-4.818s-2.158-4.818-4.819-4.818S457.227,544.425,457.227,547.087z
	 M372.188,547.087c0,2.662,2.158,4.818,4.819,4.818s4.818-2.156,4.818-4.818s-2.157-4.818-4.818-4.818
	S372.188,544.425,372.188,547.087z M278.645,547.087c0,2.662,2.157,4.818,4.818,4.818c2.662,0,4.819-2.156,4.819-4.818
	s-2.157-4.818-4.819-4.818C280.803,542.269,278.645,544.425,278.645,547.087z M185.102,547.087c0,2.662,2.156,4.818,4.818,4.818
	c2.661,0,4.818-2.156,4.818-4.818s-2.157-4.818-4.818-4.818S185.102,544.425,185.102,547.087z M100.062,547.087
	c0,2.662,2.157,4.818,4.819,4.818c2.661,0,4.818-2.156,4.818-4.818s-2.157-4.818-4.818-4.818S100.062,544.425,100.062,547.087z
	 M19.842,542.269c-2.661,0-4.817,2.156-4.817,4.818s2.156,4.818,4.817,4.818s4.819-2.156,4.819-4.818S22.503,542.269,19.842,542.269
	z M19.842,457.23c-2.661,0-4.817,2.156-4.817,4.818c0,2.66,2.156,4.818,4.817,4.818s4.819-2.158,4.819-4.818
	C24.661,459.386,22.503,457.23,19.842,457.23z M19.842,372.189c-2.661,0-4.817,2.158-4.817,4.819c0,2.661,2.156,4.819,4.817,4.819
	s4.819-2.158,4.819-4.819C24.661,374.347,22.503,372.189,19.842,372.189z M19.842,278.646c-2.661,0-4.817,2.158-4.817,4.819
	c0,2.661,2.156,4.819,4.817,4.819s4.819-2.158,4.819-4.819C24.661,280.804,22.503,278.646,19.842,278.646z M19.842,185.103
	c-2.661,0-4.817,2.157-4.817,4.818c0,2.662,2.156,4.819,4.817,4.819s4.819-2.157,4.819-4.819
	C24.661,187.26,22.503,185.103,19.842,185.103z M19.842,100.064c-2.661,0-4.817,2.157-4.817,4.818c0,2.662,2.156,4.819,4.817,4.819
	s4.819-2.157,4.819-4.819C24.661,102.221,22.503,100.064,19.842,100.064z M466.865,19.843c0-2.662-2.157-4.819-4.818-4.819
	s-4.819,2.157-4.819,4.819c0,2.661,2.158,4.818,4.819,4.818S466.865,22.504,466.865,19.843z M381.826,19.843
	c0-2.662-2.157-4.819-4.818-4.819s-4.819,2.157-4.819,4.819c0,2.661,2.158,4.818,4.819,4.818S381.826,22.504,381.826,19.843z
	 M288.283,19.843c0-2.662-2.157-4.819-4.819-4.819c-2.661,0-4.818,2.157-4.818,4.819c0,2.661,2.157,4.818,4.818,4.818
	C286.126,24.661,288.283,22.504,288.283,19.843z M194.74,19.843c0-2.662-2.157-4.819-4.818-4.819c-2.662,0-4.818,2.157-4.818,4.819
	c0,2.661,2.156,4.818,4.818,4.818C192.582,24.661,194.74,22.504,194.74,19.843z M109.7,19.843c0-2.662-2.157-4.819-4.818-4.819
	c-2.662,0-4.819,2.157-4.819,4.819c0,2.661,2.157,4.818,4.819,4.818C107.543,24.661,109.7,22.504,109.7,19.843z M24.661,19.843
	c0-2.662-2.158-4.819-4.819-4.819s-4.818,2.157-4.818,4.819c0,2.661,2.156,4.818,4.817,4.818S24.661,22.504,24.661,19.843z
	 M283.464,408.189c7.828,0,14.174-6.346,14.174-14.173s-6.346-14.173-14.174-14.173c-7.827,0-14.173,6.346-14.173,14.173
	S275.636,408.189,283.464,408.189z M253.7,398.552c2.505,0,4.535-2.031,4.535-4.536s-2.03-4.535-4.535-4.535
	s-4.535,2.03-4.535,4.535S251.196,398.552,253.7,398.552z M313.227,398.552c2.506,0,4.535-2.031,4.535-4.536
	s-2.029-4.535-4.535-4.535c-2.504,0-4.535,2.03-4.535,4.535S310.723,398.552,313.227,398.552z M283.464,428.316
	c2.505,0,4.536-2.031,4.536-4.535c0-2.506-2.031-4.536-4.536-4.536s-4.535,2.029-4.535,4.536
	C278.929,426.285,280.959,428.316,283.464,428.316z M283.464,368.788c2.505,0,4.536-2.031,4.536-4.536
	c0-2.505-2.031-4.535-4.536-4.535s-4.535,2.03-4.535,4.535C278.929,366.757,280.959,368.788,283.464,368.788z"/>
</svg>
