<?xml version="1.0" encoding="utf-8"?>
<!-- Generator: Adobe Illustrator 16.0.4, SVG Export Plug-In . SVG Version: 6.00 Build 0)  -->
<!DOCTYPE svg PUBLIC "-//W3C//DTD SVG 1.1//EN" "http://www.w3.org/Graphics/SVG/1.1/DTD/svg11.dtd">
<svg version="1.1" id="レイヤー_1" xmlns="http://www.w3.org/2000/svg" xmlns:xlink="http://www.w3.org/1999/xlink" x="0px"
	 y="0px" width="595.28px" height="841.89px" viewBox="0 0 595.28 841.89" enable-background="new 0 0 595.28 841.89"
	 xml:space="preserve">
<path fill="none" stroke="#E60012" stroke-linecap="round" stroke-linejoin="round" d="M13.505,289.896V6.431h96.378v283.465H13.505
	z M233.326,289.896V6.431H119.94v283.465H233.326z"/>
<path fill="none" stroke="#000000" stroke-linecap="round" stroke-linejoin="round" d="M20.024,26.273
	c0-2.661,2.157-4.818,4.818-4.818c2.662,0,4.819,2.157,4.819,4.818c0,2.662-2.157,4.819-4.819,4.819
	C22.182,31.093,20.024,28.936,20.024,26.273z M24.843,99.124c2.662,0,4.819-2.157,4.819-4.819c0-2.661-2.157-4.818-4.819-4.818
	c-2.661,0-4.818,2.157-4.818,4.818C20.024,96.967,22.182,99.124,24.843,99.124z M24.843,206.841c2.662,0,4.819-2.157,4.819-4.819
	c0-2.661-2.157-4.818-4.819-4.818c-2.661,0-4.818,2.157-4.818,4.818C20.024,204.684,22.182,206.841,24.843,206.841z M24.843,274.872
	c2.662,0,4.819-2.157,4.819-4.818c0-2.662-2.157-4.819-4.819-4.819c-2.661,0-4.818,2.157-4.818,4.819
	C20.024,272.715,22.182,274.872,24.843,274.872z M98.544,274.872c2.662,0,4.818-2.157,4.818-4.818c0-2.662-2.156-4.819-4.818-4.819
	c-2.661,0-4.818,2.157-4.818,4.819C93.726,272.715,95.883,274.872,98.544,274.872z M98.544,206.841c2.662,0,4.818-2.157,4.818-4.819
	c0-2.661-2.156-4.818-4.818-4.818c-2.661,0-4.818,2.157-4.818,4.818C93.726,204.684,95.883,206.841,98.544,206.841z M98.544,99.124
	c2.662,0,4.818-2.157,4.818-4.819c0-2.661-2.156-4.818-4.818-4.818c-2.661,0-4.818,2.157-4.818,4.818
	C93.726,96.967,95.883,99.124,98.544,99.124z M98.544,31.093c2.662,0,4.818-2.157,4.818-4.819c0-2.661-2.156-4.818-4.818-4.818
	c-2.661,0-4.818,2.157-4.818,4.818C93.726,28.936,95.883,31.093,98.544,31.093z M139.782,274.872c2.662,0,4.819-2.157,4.819-4.818
	c0-2.662-2.157-4.819-4.819-4.819c-2.661,0-4.818,2.157-4.818,4.819C134.964,272.715,137.121,274.872,139.782,274.872z
	 M139.782,206.841c2.662,0,4.819-2.157,4.819-4.819c0-2.661-2.157-4.818-4.819-4.818c-2.661,0-4.818,2.157-4.818,4.818
	C134.964,204.684,137.121,206.841,139.782,206.841z M139.782,99.124c2.662,0,4.819-2.157,4.819-4.819
	c0-2.661-2.157-4.818-4.819-4.818c-2.661,0-4.818,2.157-4.818,4.818C134.964,96.967,137.121,99.124,139.782,99.124z M139.782,31.093
	c2.662,0,4.819-2.157,4.819-4.819c0-2.661-2.157-4.818-4.819-4.818c-2.661,0-4.818,2.157-4.818,4.818
	C134.964,28.936,137.121,31.093,139.782,31.093z M213.483,31.093c2.662,0,4.818-2.157,4.818-4.819c0-2.661-2.156-4.818-4.818-4.818
	c-2.661,0-4.818,2.157-4.818,4.818C208.665,28.936,210.822,31.093,213.483,31.093z M213.483,99.124c2.662,0,4.818-2.157,4.818-4.819
	c0-2.661-2.156-4.818-4.818-4.818c-2.661,0-4.818,2.157-4.818,4.818C208.665,96.967,210.822,99.124,213.483,99.124z
	 M213.483,206.841c2.662,0,4.818-2.157,4.818-4.819c0-2.661-2.156-4.818-4.818-4.818c-2.661,0-4.818,2.157-4.818,4.818
	C208.665,204.684,210.822,206.841,213.483,206.841z M213.483,274.872c2.662,0,4.818-2.157,4.818-4.818
	c0-2.662-2.156-4.819-4.818-4.819c-2.661,0-4.818,2.157-4.818,4.819C208.665,272.715,210.822,274.872,213.483,274.872z"/>
</svg>
