<?xml version="1.0" encoding="utf-8"?>
<!-- Generator: Adobe Illustrator 16.0.4, SVG Export Plug-In . SVG Version: 6.00 Build 0)  -->
<!DOCTYPE svg PUBLIC "-//W3C//DTD SVG 1.1//EN" "http://www.w3.org/Graphics/SVG/1.1/DTD/svg11.dtd">
<svg version="1.1" id="レイヤー_1" xmlns="http://www.w3.org/2000/svg" xmlns:xlink="http://www.w3.org/1999/xlink" x="0px"
	 y="0px" width="595.279px" height="841.89px" viewBox="0 0 595.279 841.89" enable-background="new 0 0 595.279 841.89"
	 xml:space="preserve">
<path fill="none" stroke="#004080" stroke-linecap="round" stroke-linejoin="round" d="M141.734,167.244H0V87.875h141.732
	L141.734,167.244L141.734,167.244z M141.734,0H0v79.371h141.732L141.734,0L141.734,0z M2.041,174.859v56.693h184.252v-56.693H2.041z
	 M2.041,240.057v56.692h184.252v-56.692H2.041z"/>
<path fill="none" stroke="#000000" stroke-linecap="round" stroke-linejoin="round" d="M130.395,94.395
	c2.661,0,4.818,2.156,4.818,4.818s-2.157,4.818-4.818,4.818s-4.818-2.156-4.818-4.818S127.734,94.395,130.395,94.395z M6.521,99.213
	c0,2.662,2.157,4.818,4.818,4.818s4.818-2.156,4.818-4.818S14,94.395,11.339,94.395S6.521,96.551,6.521,99.213z M6.521,155.906
	c0,2.66,2.157,4.818,4.818,4.818s4.818-2.158,4.818-4.818c0-2.662-2.157-4.82-4.818-4.82S6.521,153.244,6.521,155.906z
	 M125.576,155.906c0,2.66,2.157,4.818,4.818,4.818s4.818-2.158,4.818-4.818c0-2.662-2.157-4.82-4.818-4.82
	S125.576,153.244,125.576,155.906z M125.576,11.338c0,2.662,2.157,4.82,4.818,4.82s4.818-2.158,4.818-4.82
	c0-2.66-2.157-4.818-4.818-4.818S125.576,8.678,125.576,11.338z M6.521,11.338c0,2.662,2.157,4.82,4.818,4.82
	s4.818-2.158,4.818-4.82c0-2.66-2.157-4.818-4.818-4.818S6.521,8.678,6.521,11.338z M6.521,68.031c0,2.662,2.157,4.82,4.818,4.82
	s4.818-2.158,4.818-4.82c0-2.66-2.157-4.818-4.818-4.818S6.521,65.371,6.521,68.031z M125.576,68.031c0,2.662,2.157,4.82,4.818,4.82
	s4.818-2.158,4.818-4.82c0-2.66-2.157-4.818-4.818-4.818S125.576,65.371,125.576,68.031z M174.954,181.379
	c-2.661,0-4.817,2.158-4.817,4.818c0,2.662,2.156,4.819,4.817,4.819c2.662,0,4.819-2.157,4.819-4.819
	C179.775,183.537,177.617,181.379,174.954,181.379z M174.954,215.395c-2.661,0-4.817,2.158-4.817,4.818
	c0,2.662,2.156,4.82,4.817,4.82c2.662,0,4.819-2.158,4.819-4.82C179.775,217.553,177.617,215.395,174.954,215.395z M13.38,215.395
	c-2.661,0-4.818,2.158-4.818,4.818c0,2.662,2.157,4.82,4.818,4.82s4.818-2.158,4.818-4.82
	C18.199,217.553,16.041,215.395,13.38,215.395z M174.954,246.576c-2.661,0-4.817,2.157-4.817,4.818c0,2.662,2.156,4.818,4.817,4.818
	c2.662,0,4.819-2.156,4.819-4.818C179.775,248.733,177.617,246.576,174.954,246.576z M174.954,280.592
	c-2.661,0-4.817,2.157-4.817,4.818c0,2.662,2.156,4.819,4.817,4.819c2.662,0,4.819-2.157,4.819-4.819
	C179.775,282.749,177.617,280.592,174.954,280.592z M13.38,280.592c-2.661,0-4.818,2.157-4.818,4.818
	c0,2.662,2.157,4.819,4.818,4.819s4.818-2.157,4.818-4.819C18.199,282.749,16.041,280.592,13.38,280.592z"/>
</svg>
