<?xml version="1.0" encoding="utf-8"?>
<!-- Generator: Adobe Illustrator 16.0.4, SVG Export Plug-In . SVG Version: 6.00 Build 0)  -->
<!DOCTYPE svg PUBLIC "-//W3C//DTD SVG 1.1//EN" "http://www.w3.org/Graphics/SVG/1.1/DTD/svg11.dtd">
<svg version="1.1" id="レイヤー_1" xmlns="http://www.w3.org/2000/svg" xmlns:xlink="http://www.w3.org/1999/xlink" x="0px"
	 y="0px" width="595.28px" height="841.89px" viewBox="0 0 595.28 841.89" enable-background="new 0 0 595.28 841.89"
	 xml:space="preserve">
<path fill="none" stroke="#004080" stroke-linecap="round" stroke-linejoin="round" d="M17.046,156.07h213.728v113.904H17.046
	V156.07z M17.046,136.746h213.728V22.842H17.046V136.746z"/>
<path fill="none" stroke="#000000" stroke-linecap="round" stroke-linejoin="round" d="M224.254,42.684
	c0,2.662-2.157,4.819-4.818,4.819c-2.662,0-4.819-2.157-4.819-4.819c0-2.66,2.157-4.818,4.819-4.818
	C222.097,37.865,224.254,40.023,224.254,42.684z M219.436,112.084c-2.662,0-4.819,2.158-4.819,4.82c0,2.66,2.157,4.818,4.819,4.818
	c2.661,0,4.818-2.158,4.818-4.818C224.254,114.242,222.097,112.084,219.436,112.084z M219.436,171.094
	c-2.662,0-4.819,2.157-4.819,4.818c0,2.662,2.157,4.819,4.819,4.819c2.661,0,4.818-2.157,4.818-4.819
	C224.254,173.251,222.097,171.094,219.436,171.094z M219.436,245.312c-2.662,0-4.819,2.158-4.819,4.819s2.157,4.819,4.819,4.819
	c2.661,0,4.818-2.158,4.818-4.819S222.097,245.312,219.436,245.312z M97.691,213.022c0-2.661-2.157-4.819-4.818-4.819
	c-2.662,0-4.819,2.158-4.819,4.819s2.157,4.819,4.819,4.819C95.534,217.842,97.691,215.684,97.691,213.022z M194.211,71.832
	c3.288,0,5.953-2.664,5.953-5.951c0-3.288-2.665-5.953-5.953-5.953c-4.062,0-8.125,0-12.188,0c0-3.402,0-6.804,0-10.205
	c-39.118,0-78.236,0-117.354,0c0,3.401,0,6.803,0,10.205c-4.062,0-8.126,0-12.189,0c-3.287,0-5.952,2.665-5.952,5.953
	c0,3.287,2.665,5.951,5.952,5.951c4.063,0,8.127,0,12.189,0c0,5.481,0,10.961,0,16.441c-4.062,0-8.126,0-12.189,0
	c-3.287,0-5.952,2.666-5.952,5.953s2.665,5.953,5.952,5.953c4.063,0,8.127,0,12.189,0c0,3.401,0,6.803,0,10.204
	c39.118,0,78.236,0,117.354,0c0-3.401,0-6.803,0-10.204c4.063,0,8.126,0,12.188,0c3.288,0,5.953-2.666,5.953-5.953
	s-2.665-5.953-5.953-5.953c-4.062,0-8.125,0-12.188,0c0-5.48,0-10.96,0-16.441C186.086,71.832,190.148,71.832,194.211,71.832z"/>
</svg>
