<?xml version="1.0" encoding="utf-8"?>
<!-- Generator: Adobe Illustrator 16.0.4, SVG Export Plug-In . SVG Version: 6.00 Build 0)  -->
<!DOCTYPE svg PUBLIC "-//W3C//DTD SVG 1.1//EN" "http://www.w3.org/Graphics/SVG/1.1/DTD/svg11.dtd">
<svg version="1.1" id="レイヤー_1" xmlns="http://www.w3.org/2000/svg" xmlns:xlink="http://www.w3.org/1999/xlink" x="0px"
	 y="0px" width="595.279px" height="841.89px" viewBox="0 0 595.279 841.89" enable-background="new 0 0 595.279 841.89"
	 xml:space="preserve">
<path fill="none" stroke="#013E79" stroke-linecap="round" stroke-linejoin="round" d="M0,0h188.787v219.652H0V0z"/>
<path fill="none" stroke="#040000" stroke-linecap="round" stroke-linejoin="round" d="M31.179,104.2
	c0-34.912,28.302-63.212,63.213-63.212s63.212,28.301,63.212,63.212s-28.301,63.212-63.212,63.212S31.179,139.111,31.179,104.2z
	 M173.479,208.314c0-2.506-2.031-4.536-4.536-4.536s-4.535,2.03-4.535,4.536c0,2.504,2.03,4.535,4.535,4.535
	S173.479,210.818,173.479,208.314z M173.479,11.338c0-2.504-2.031-4.535-4.536-4.535s-4.535,2.031-4.535,4.535
	c0,2.505,2.03,4.536,4.535,4.536S173.479,13.843,173.479,11.338z M19.842,15.874c2.505,0,4.536-2.031,4.536-4.536
	c0-2.504-2.031-4.535-4.536-4.535s-4.536,2.031-4.536,4.535C15.305,13.843,17.337,15.874,19.842,15.874z M19.842,212.849
	c2.505,0,4.536-2.031,4.536-4.535c0-2.506-2.031-4.536-4.536-4.536s-4.536,2.03-4.536,4.536
	C15.305,210.818,17.337,212.849,19.842,212.849z"/>
</svg>
