<?xml version="1.0" encoding="utf-8"?>
<!-- Generator: Adobe Illustrator 16.0.4, SVG Export Plug-In . SVG Version: 6.00 Build 0)  -->
<!DOCTYPE svg PUBLIC "-//W3C//DTD SVG 1.1//EN" "http://www.w3.org/Graphics/SVG/1.1/DTD/svg11.dtd">
<svg version="1.1" id="レイヤー_1" xmlns="http://www.w3.org/2000/svg" xmlns:xlink="http://www.w3.org/1999/xlink" x="0px"
	 y="0px" width="595.28px" height="841.89px" viewBox="0 0 595.28 841.89" enable-background="new 0 0 595.28 841.89"
	 xml:space="preserve">
<path fill="none" stroke="#004080" stroke-linecap="round" stroke-linejoin="round" d="M202.318,16.598v213.929H13.531V16.598
	H202.318z"/>
<path fill="none" stroke="#000000" stroke-linecap="round" stroke-linejoin="round" d="M33.373,41.259
	c-2.661,0-4.818-2.157-4.818-4.818c0-2.662,2.157-4.819,4.818-4.819c2.662,0,4.819,2.157,4.819,4.819
	C38.192,39.102,36.035,41.259,33.373,41.259z M187.294,36.44c0-2.662-2.157-4.819-4.819-4.819c-2.661,0-4.818,2.157-4.818,4.819
	c0,2.661,2.157,4.818,4.818,4.818C185.137,41.259,187.294,39.102,187.294,36.44z M187.294,153.132c0-2.661-2.157-4.818-4.819-4.818
	c-2.661,0-4.818,2.157-4.818,4.818c0,2.662,2.157,4.819,4.818,4.819C185.137,157.951,187.294,155.794,187.294,153.132z
	 M112.743,153.132c0-2.661-2.157-4.818-4.818-4.818s-4.819,2.157-4.819,4.818c0,2.662,2.158,4.819,4.819,4.819
	S112.743,155.794,112.743,153.132z M38.192,153.132c0-2.661-2.157-4.818-4.819-4.818c-2.661,0-4.818,2.157-4.818,4.818
	c0,2.662,2.157,4.819,4.818,4.819C36.035,157.951,38.192,155.794,38.192,153.132z"/>
</svg>
