<?xml version="1.0" encoding="utf-8"?>
<!-- Generator: Adobe Illustrator 16.0.4, SVG Export Plug-In . SVG Version: 6.00 Build 0)  -->
<!DOCTYPE svg PUBLIC "-//W3C//DTD SVG 1.1//EN" "http://www.w3.org/Graphics/SVG/1.1/DTD/svg11.dtd">
<svg version="1.1" id="レイヤー_1" xmlns="http://www.w3.org/2000/svg" xmlns:xlink="http://www.w3.org/1999/xlink" x="0px"
	 y="0px" width="595.28px" height="841.89px" viewBox="0 0 595.28 841.89" enable-background="new 0 0 595.28 841.89"
	 xml:space="preserve">
<rect x="27.15" y="12.639" fill="none" stroke="#E60012" stroke-linecap="round" stroke-linejoin="round" width="181.418" height="566.93"/>
<path fill="none" stroke="#000000" stroke-linecap="round" stroke-linejoin="round" d="M33.67,32.482c0-2.662,2.158-4.82,4.82-4.82
	c2.66,0,4.817,2.158,4.817,4.82c0,2.66-2.157,4.818-4.818,4.818C35.827,37.301,33.67,35.143,33.67,32.482z M38.489,122.34
	c2.661,0,4.818-2.158,4.818-4.818c0-2.662-2.157-4.82-4.818-4.82c-2.662,0-4.819,2.158-4.819,4.82
	C33.67,120.182,35.827,122.34,38.489,122.34z M38.489,207.379c2.661,0,4.818-2.158,4.818-4.818c0-2.662-2.157-4.82-4.818-4.82
	c-2.662,0-4.819,2.158-4.819,4.82C33.67,205.221,35.827,207.379,38.489,207.379z M38.489,300.922c2.661,0,4.818-2.156,4.818-4.818
	s-2.157-4.818-4.818-4.818c-2.662,0-4.819,2.156-4.819,4.818S35.827,300.922,38.489,300.922z M38.489,394.465
	c2.661,0,4.818-2.156,4.818-4.818s-2.157-4.818-4.818-4.818c-2.662,0-4.819,2.156-4.819,4.818S35.827,394.465,38.489,394.465z
	 M38.489,479.504c2.661,0,4.818-2.156,4.818-4.818c0-2.66-2.157-4.818-4.818-4.818c-2.662,0-4.819,2.158-4.819,4.818
	C33.67,477.348,35.827,479.504,38.489,479.504z M38.489,564.545c2.661,0,4.818-2.158,4.818-4.82c0-2.66-2.157-4.818-4.818-4.818
	c-2.662,0-4.819,2.158-4.819,4.818C33.67,562.387,35.827,564.545,38.489,564.545z M197.229,564.545c2.66,0,4.818-2.158,4.818-4.82
	c0-2.66-2.158-4.818-4.818-4.818c-2.662,0-4.819,2.158-4.819,4.818C192.41,562.387,194.567,564.545,197.229,564.545z
	 M197.229,479.504c2.66,0,4.818-2.156,4.818-4.818c0-2.66-2.158-4.818-4.818-4.818c-2.662,0-4.819,2.158-4.819,4.818
	C192.41,477.348,194.567,479.504,197.229,479.504z M197.229,394.465c2.66,0,4.818-2.156,4.818-4.818s-2.158-4.818-4.818-4.818
	c-2.662,0-4.819,2.156-4.819,4.818S194.567,394.465,197.229,394.465z M197.229,300.922c2.66,0,4.818-2.156,4.818-4.818
	s-2.158-4.818-4.818-4.818c-2.662,0-4.819,2.156-4.819,4.818S194.567,300.922,197.229,300.922z M197.229,207.379
	c2.66,0,4.818-2.158,4.818-4.818c0-2.662-2.158-4.82-4.818-4.82c-2.662,0-4.819,2.158-4.819,4.82
	C192.41,205.221,194.567,207.379,197.229,207.379z M197.229,122.34c2.66,0,4.818-2.158,4.818-4.818c0-2.662-2.158-4.82-4.818-4.82
	c-2.662,0-4.819,2.158-4.819,4.82C192.41,120.182,194.567,122.34,197.229,122.34z M197.229,37.301c2.66,0,4.818-2.158,4.818-4.818
	c0-2.662-2.157-4.82-4.817-4.82c-2.662,0-4.82,2.158-4.82,4.82C192.41,35.143,194.567,37.301,197.229,37.301z M117.858,352.797
	c31.311,0,56.693-25.383,56.693-56.693s-25.383-56.693-56.693-56.693s-56.692,25.383-56.692,56.693S86.548,352.797,117.858,352.797z
	"/>
</svg>
