<?xml version="1.0" encoding="utf-8"?>
<!-- Generator: Adobe Illustrator 16.0.4, SVG Export Plug-In . SVG Version: 6.00 Build 0)  -->
<!DOCTYPE svg PUBLIC "-//W3C//DTD SVG 1.1//EN" "http://www.w3.org/Graphics/SVG/1.1/DTD/svg11.dtd">
<svg version="1.1" id="レイヤー_1" xmlns="http://www.w3.org/2000/svg" xmlns:xlink="http://www.w3.org/1999/xlink" x="0px"
	 y="0px" width="595.28px" height="841.89px" viewBox="0 0 595.28 841.89" enable-background="new 0 0 595.28 841.89"
	 xml:space="preserve">
<path fill="none" stroke="#004080" stroke-linecap="round" stroke-linejoin="round" d="M14.176,574.748V7.819h566.929v566.929
	H14.176z"/>
<path fill="none" stroke="#000000" stroke-linecap="round" stroke-linejoin="round" d="M556.443,27.662
	c0-2.662,2.157-4.819,4.818-4.819c2.662,0,4.819,2.157,4.819,4.819c0,2.661-2.157,4.818-4.819,4.818
	C558.601,32.48,556.443,30.323,556.443,27.662z M561.262,117.521c2.662,0,4.819-2.157,4.819-4.819c0-2.661-2.157-4.818-4.819-4.818
	c-2.661,0-4.818,2.157-4.818,4.818C556.443,115.363,558.601,117.521,561.262,117.521z M561.262,202.56
	c2.662,0,4.819-2.157,4.819-4.819c0-2.661-2.157-4.818-4.819-4.818c-2.661,0-4.818,2.157-4.818,4.818
	C556.443,200.402,558.601,202.56,561.262,202.56z M561.262,296.104c2.662,0,4.819-2.158,4.819-4.819s-2.157-4.819-4.819-4.819
	c-2.661,0-4.818,2.158-4.818,4.819S558.601,296.104,561.262,296.104z M561.262,389.646c2.662,0,4.819-2.158,4.819-4.819
	s-2.157-4.819-4.819-4.819c-2.661,0-4.818,2.158-4.818,4.819S558.601,389.646,561.262,389.646z M561.262,474.686
	c2.662,0,4.819-2.158,4.819-4.818c0-2.662-2.157-4.819-4.819-4.819c-2.661,0-4.818,2.157-4.818,4.819
	C556.443,472.527,558.601,474.686,561.262,474.686z M556.443,554.906c0,2.661,2.157,4.818,4.818,4.818
	c2.662,0,4.819-2.157,4.819-4.818c0-2.662-2.157-4.819-4.819-4.819C558.601,550.087,556.443,552.244,556.443,554.906z
	 M471.403,554.906c0,2.661,2.158,4.818,4.819,4.818s4.819-2.157,4.819-4.818c0-2.662-2.158-4.819-4.819-4.819
	S471.403,552.244,471.403,554.906z M386.364,554.906c0,2.661,2.158,4.818,4.819,4.818s4.818-2.157,4.818-4.818
	c0-2.662-2.157-4.819-4.818-4.819S386.364,552.244,386.364,554.906z M292.821,554.906c0,2.661,2.157,4.818,4.818,4.818
	c2.662,0,4.819-2.157,4.819-4.818c0-2.662-2.157-4.819-4.819-4.819C294.979,550.087,292.821,552.244,292.821,554.906z
	 M199.278,554.906c0,2.661,2.156,4.818,4.818,4.818c2.661,0,4.818-2.157,4.818-4.818c0-2.662-2.157-4.819-4.818-4.819
	C201.435,550.087,199.278,552.244,199.278,554.906z M114.238,554.906c0,2.661,2.157,4.818,4.819,4.818
	c2.661,0,4.818-2.157,4.818-4.818c0-2.662-2.157-4.819-4.818-4.819C116.396,550.087,114.238,552.244,114.238,554.906z
	 M34.018,550.087c-2.661,0-4.818,2.157-4.818,4.819c0,2.661,2.157,4.818,4.818,4.818s4.819-2.157,4.819-4.818
	C38.837,552.244,36.679,550.087,34.018,550.087z M34.018,465.048c-2.661,0-4.818,2.157-4.818,4.819c0,2.66,2.157,4.818,4.818,4.818
	s4.819-2.158,4.819-4.818C38.837,467.205,36.679,465.048,34.018,465.048z M34.018,380.008c-2.661,0-4.818,2.158-4.818,4.819
	s2.157,4.819,4.818,4.819s4.819-2.158,4.819-4.819S36.679,380.008,34.018,380.008z M34.018,286.465
	c-2.661,0-4.818,2.158-4.818,4.819s2.157,4.819,4.818,4.819s4.819-2.158,4.819-4.819S36.679,286.465,34.018,286.465z
	 M34.018,192.922c-2.661,0-4.818,2.157-4.818,4.818c0,2.662,2.157,4.819,4.818,4.819s4.819-2.157,4.819-4.819
	C38.837,195.079,36.679,192.922,34.018,192.922z M34.018,107.883c-2.661,0-4.818,2.157-4.818,4.818c0,2.662,2.157,4.819,4.818,4.819
	s4.819-2.157,4.819-4.819C38.837,110.04,36.679,107.883,34.018,107.883z M481.042,27.662c0-2.662-2.158-4.819-4.819-4.819
	s-4.819,2.157-4.819,4.819c0,2.661,2.158,4.818,4.819,4.818S481.042,30.323,481.042,27.662z M396.002,27.662
	c0-2.662-2.157-4.819-4.818-4.819s-4.819,2.157-4.819,4.819c0,2.661,2.158,4.818,4.819,4.818S396.002,30.323,396.002,27.662z
	 M302.459,27.662c0-2.662-2.157-4.819-4.819-4.819c-2.661,0-4.818,2.157-4.818,4.819c0,2.661,2.157,4.818,4.818,4.818
	C300.302,32.48,302.459,30.323,302.459,27.662z M208.915,27.662c0-2.662-2.157-4.819-4.818-4.819c-2.662,0-4.818,2.157-4.818,4.819
	c0,2.661,2.156,4.818,4.818,4.818C206.758,32.48,208.915,30.323,208.915,27.662z M123.876,27.662c0-2.662-2.157-4.819-4.818-4.819
	c-2.662,0-4.819,2.157-4.819,4.819c0,2.661,2.157,4.818,4.819,4.818C121.719,32.48,123.876,30.323,123.876,27.662z M38.837,27.662
	c0-2.662-2.158-4.819-4.819-4.819S29.199,25,29.199,27.662c0,2.661,2.157,4.818,4.818,4.818S38.837,30.323,38.837,27.662z
	 M297.64,416.008c7.828,0,14.174-6.346,14.174-14.173s-6.346-14.173-14.174-14.173c-7.827,0-14.173,6.346-14.173,14.173
	S289.812,416.008,297.64,416.008z M267.876,406.371c2.505,0,4.535-2.031,4.535-4.536s-2.03-4.535-4.535-4.535
	s-4.535,2.03-4.535,4.535S265.371,406.371,267.876,406.371z M327.403,406.371c2.506,0,4.535-2.031,4.535-4.536
	s-2.029-4.535-4.535-4.535c-2.504,0-4.535,2.03-4.535,4.535S324.899,406.371,327.403,406.371z M297.64,436.135
	c2.505,0,4.536-2.031,4.536-4.536s-2.031-4.535-4.536-4.535s-4.535,2.03-4.535,4.535S295.135,436.135,297.64,436.135z
	 M297.64,376.607c2.505,0,4.536-2.031,4.536-4.536s-2.031-4.535-4.536-4.535s-4.535,2.03-4.535,4.535
	S295.135,376.607,297.64,376.607z"/>
</svg>
