<?xml version="1.0" encoding="utf-8"?>
<!-- Generator: Adobe Illustrator 16.0.4, SVG Export Plug-In . SVG Version: 6.00 Build 0)  -->
<!DOCTYPE svg PUBLIC "-//W3C//DTD SVG 1.1//EN" "http://www.w3.org/Graphics/SVG/1.1/DTD/svg11.dtd">
<svg version="1.1" id="レイヤー_1" xmlns="http://www.w3.org/2000/svg" xmlns:xlink="http://www.w3.org/1999/xlink" x="0px"
	 y="0px" width="595.279px" height="841.89px" viewBox="0 0 595.279 841.89" enable-background="new 0 0 595.279 841.89"
	 xml:space="preserve">
<path fill="none" stroke="#004080" stroke-linecap="round" stroke-linejoin="round" d="M188.787,0v213.929H0V0H188.787z"/>
<path fill="none" stroke="#000000" stroke-linecap="round" stroke-linejoin="round" d="M19.843,24.661
	c-2.661,0-4.818-2.157-4.818-4.818c0-2.662,2.157-4.819,4.818-4.819c2.662,0,4.818,2.157,4.818,4.819
	C24.661,22.504,22.505,24.661,19.843,24.661z M173.764,19.842c0-2.662-2.157-4.819-4.819-4.819c-2.661,0-4.817,2.157-4.817,4.819
	c0,2.661,2.156,4.818,4.817,4.818C171.607,24.661,173.764,22.504,173.764,19.842z M173.764,136.534c0-2.661-2.157-4.818-4.819-4.818
	c-2.661,0-4.817,2.157-4.817,4.818c0,2.662,2.156,4.819,4.817,4.819C171.607,141.353,173.764,139.196,173.764,136.534z
	 M99.213,136.534c0-2.661-2.157-4.818-4.818-4.818s-4.819,2.157-4.819,4.818c0,2.662,2.158,4.819,4.819,4.819
	S99.213,139.196,99.213,136.534z M24.661,136.534c0-2.661-2.156-4.818-4.818-4.818c-2.661,0-4.818,2.157-4.818,4.818
	c0,2.662,2.157,4.819,4.818,4.819C22.505,141.353,24.661,139.196,24.661,136.534z"/>
</svg>
