<?xml version="1.0" encoding="utf-8"?>
<!-- Generator: Adobe Illustrator 16.0.4, SVG Export Plug-In . SVG Version: 6.00 Build 0)  -->
<!DOCTYPE svg PUBLIC "-//W3C//DTD SVG 1.1//EN" "http://www.w3.org/Graphics/SVG/1.1/DTD/svg11.dtd">
<svg version="1.1" id="レイヤー_1" xmlns="http://www.w3.org/2000/svg" xmlns:xlink="http://www.w3.org/1999/xlink" x="0px"
	 y="0px" width="595.279px" height="841.89px" viewBox="0 0 595.279 841.89" enable-background="new 0 0 595.279 841.89"
	 xml:space="preserve">
<path fill="none" stroke="#004080" stroke-linecap="round" stroke-linejoin="round" d="M193.822,349.865
	c0.573,24.948-19.493,45.481-44.448,45.481c-24.956,0-45.023-20.533-44.451-45.481 M176.827,0h-54.908 M121.918,0
	c-9.391,0-17,7.614-16.996,17.003 M193.822,17.003C193.827,7.614,186.218,0,176.827,0 M104.922,17.003v332.862 M193.822,17.003
	v332.862"/>
<path fill="none" stroke="#004080" stroke-linecap="round" stroke-linejoin="round" d="M0.012,349.865
	c-0.573,24.948,19.495,45.481,44.45,45.481s45.021-20.533,44.45-45.481c0-110.954,0-221.908,0-332.862
	c0.004-9.389-7.606-17.002-16.996-17.002c-18.304,0-36.605,0-54.909,0c-9.39,0-17,7.613-16.995,17.002
	C0.012,127.957,0.012,238.911,0.012,349.865z"/>
<path fill="none" stroke="#004080" stroke-linecap="round" stroke-linejoin="round" d="M239.731,21.966
	c0-9.387-7.608-16.996-16.996-16.996c-9.387,0-16.997,7.609-16.997,16.996c0,114.909,0,229.817,0,344.727
	c0,9.387,7.61,16.996,16.997,16.996c9.388,0,16.996-7.609,16.996-16.996C239.731,251.783,239.731,136.875,239.731,21.966z"/>
<path fill="none" stroke="#000000" stroke-linecap="round" stroke-linejoin="round" d="M173.98,272.689
	c-2.661,0-4.817-2.158-4.817-4.819s2.156-4.818,4.817-4.818c2.662,0,4.819,2.157,4.819,4.818
	C178.8,270.532,176.642,272.689,173.98,272.689z M129.584,267.87c0-2.661-2.157-4.818-4.819-4.818c-2.661,0-4.818,2.157-4.818,4.818
	c0,2.662,2.157,4.819,4.818,4.819S129.584,270.532,129.584,267.87z M129.584,178.172c0-2.661-2.157-4.819-4.819-4.819
	c-2.661,0-4.818,2.158-4.818,4.819c0,2.662,2.157,4.819,4.818,4.819S129.584,180.833,129.584,178.172z M178.8,178.172
	c0-2.661-2.157-4.819-4.819-4.819c-2.661,0-4.817,2.158-4.817,4.819c0,2.662,2.156,4.819,4.817,4.819
	C176.642,182.991,178.8,180.833,178.8,178.172z M178.8,88.474c0-2.661-2.157-4.819-4.819-4.819c-2.661,0-4.817,2.158-4.817,4.819
	c0,2.662,2.156,4.819,4.817,4.819C176.642,93.292,178.8,91.135,178.8,88.474z M129.584,88.474c0-2.661-2.157-4.819-4.819-4.819
	c-2.661,0-4.818,2.158-4.818,4.819c0,2.662,2.157,4.819,4.818,4.819C127.426,93.292,129.584,91.135,129.584,88.474z M73.889,267.87
	c0-2.661-2.157-4.819-4.818-4.819s-4.818,2.158-4.818,4.819c0,2.662,2.157,4.819,4.818,4.819S73.889,270.531,73.889,267.87z
	 M24.673,267.87c0-2.661-2.156-4.819-4.818-4.819s-4.817,2.158-4.817,4.819c0,2.662,2.155,4.819,4.817,4.819
	S24.673,270.531,24.673,267.87z M24.673,178.171c0-2.661-2.156-4.819-4.818-4.819s-4.817,2.158-4.817,4.819
	c0,2.662,2.155,4.819,4.817,4.819S24.673,180.833,24.673,178.171z M73.889,178.171c0-2.661-2.157-4.819-4.818-4.819
	s-4.818,2.158-4.818,4.819c0,2.662,2.157,4.819,4.818,4.819C71.732,182.991,73.889,180.833,73.889,178.171z M73.889,88.473
	c0-2.661-2.157-4.819-4.818-4.819s-4.818,2.158-4.818,4.819c0,2.662,2.157,4.819,4.818,4.819S73.889,91.135,73.889,88.473z
	 M24.673,88.473c0-2.661-2.156-4.819-4.818-4.819s-4.817,2.158-4.817,4.819c0,2.662,2.155,4.819,4.817,4.819
	S24.673,91.135,24.673,88.473z M168.624,20.411c2.479,0.353,4.774-1.372,5.128-3.852c0.353-2.48-1.372-4.776-3.853-5.128
	c-2.479-0.352-4.775,1.372-5.129,3.852C164.418,17.763,166.142,20.059,168.624,20.411z M146.978,367.724
	c9.299,1.322,17.91-5.145,19.232-14.444c1.321-9.299-5.146-17.91-14.444-19.233c-9.3-1.322-17.91,5.145-19.231,14.444
	C131.213,357.79,137.677,366.401,146.978,367.724z M170.101,371.614c-1.826,1.826-1.826,4.788,0,6.615
	c1.827,1.826,4.789,1.826,6.615,0c1.826-1.827,1.826-4.789,0-6.615C174.89,369.788,171.928,369.788,170.101,371.614z
	 M128.642,371.614c-1.826-1.826-4.787-1.826-6.614,0c-1.826,1.826-1.826,4.788,0,6.615c1.827,1.826,4.788,1.826,6.614,0
	C130.469,376.402,130.469,373.44,128.642,371.614z M128.642,330.155c1.826-1.826,1.826-4.788,0-6.614
	c-1.826-1.827-4.787-1.827-6.614,0c-1.826,1.826-1.826,4.788,0,6.614C123.855,331.981,126.816,331.981,128.642,330.155z
	 M170.101,330.155c1.827,1.826,4.789,1.826,6.615,0c1.826-1.826,1.826-4.788,0-6.614c-1.826-1.827-4.788-1.827-6.615,0
	C168.275,325.367,168.275,328.329,170.101,330.155z M63.713,20.411c2.479,0.353,4.775-1.372,5.128-3.852
	c0.354-2.48-1.371-4.776-3.853-5.128c-2.479-0.353-4.774,1.372-5.129,3.852C59.508,17.762,61.233,20.058,63.713,20.411z
	 M43.785,355.655c2.635,0.375,5.073-1.457,5.448-4.092c0.375-2.635-1.457-5.074-4.093-5.449c-2.635-0.375-5.074,1.457-5.449,4.092
	C39.317,352.84,41.149,355.281,43.785,355.655z M222.37,26.487c2.496,0.202,4.685-1.658,4.887-4.154
	c0.202-2.497-1.657-4.686-4.154-4.887c-2.497-0.203-4.685,1.657-4.887,4.154S219.873,26.284,222.37,26.487z M222.37,371.213
	c2.496,0.202,4.685-1.657,4.887-4.154s-1.657-4.685-4.154-4.888c-2.497-0.201-4.685,1.658-4.887,4.154
	C218.013,368.823,219.873,371.011,222.37,371.213z"/>
</svg>
