<?xml version="1.0" encoding="utf-8"?>
<!-- Generator: Adobe Illustrator 16.0.4, SVG Export Plug-In . SVG Version: 6.00 Build 0)  -->
<!DOCTYPE svg PUBLIC "-//W3C//DTD SVG 1.1//EN" "http://www.w3.org/Graphics/SVG/1.1/DTD/svg11.dtd">
<svg version="1.1" id="繝_xFF6C_繧_xFF64_繝_xFF64__01"
	 xmlns="http://www.w3.org/2000/svg" xmlns:xlink="http://www.w3.org/1999/xlink" x="0px" y="0px" width="595.28px"
	 height="841.89px" viewBox="0 0 595.28 841.89" enable-background="new 0 0 595.28 841.89" xml:space="preserve">
<path fill="none" stroke="#000000" stroke-linecap="round" stroke-linejoin="round" d="M10.764,8h274.961v223.466H10.764V8z"/>
<path fill="none" stroke="#C80000" stroke-linecap="round" stroke-linejoin="round" d="M22.103,216.159
	c-2.505,0-4.536-2.03-4.536-4.535s2.031-4.536,4.536-4.536c2.505,0,4.535,2.031,4.535,4.536S24.607,216.159,22.103,216.159z
	 M278.921,119.733c0-2.505-2.031-4.535-4.536-4.535s-4.535,2.03-4.535,4.535s2.03,4.536,4.535,4.536
	S278.921,122.238,278.921,119.733z M278.921,211.624c0-2.505-2.031-4.536-4.536-4.536s-4.535,2.031-4.535,4.536
	s2.03,4.535,4.535,4.535S278.921,214.128,278.921,211.624z M278.921,19.339c0-2.505-2.031-4.536-4.536-4.536
	s-4.535,2.031-4.535,4.536c0,2.505,2.03,4.535,4.535,4.535S278.921,21.843,278.921,19.339z M26.638,119.733
	c0-2.505-2.031-4.535-4.535-4.535c-2.505,0-4.536,2.03-4.536,4.535s2.031,4.536,4.536,4.536
	C24.607,124.269,26.638,122.238,26.638,119.733z M22.103,23.874c2.505,0,4.535-2.031,4.535-4.535c0-2.505-2.031-4.536-4.535-4.536
	c-2.505,0-4.536,2.031-4.536,4.536C17.567,21.843,19.598,23.874,22.103,23.874z"/>
</svg>
