<?xml version="1.0" encoding="utf-8"?>
<!-- Generator: Adobe Illustrator 16.0.4, SVG Export Plug-In . SVG Version: 6.00 Build 0)  -->
<!DOCTYPE svg PUBLIC "-//W3C//DTD SVG 1.1//EN" "http://www.w3.org/Graphics/SVG/1.1/DTD/svg11.dtd">
<svg version="1.1" id="レイヤー_1" xmlns="http://www.w3.org/2000/svg" xmlns:xlink="http://www.w3.org/1999/xlink" x="0px"
	 y="0px" width="595.279px" height="841.89px" viewBox="0 0 595.279 841.89" enable-background="new 0 0 595.279 841.89"
	 xml:space="preserve">
<path fill="none" stroke="#013E79" stroke-linecap="round" stroke-linejoin="round" d="M14.308,12.445h188.787v219.652H14.308
	V12.445z"/>
<path fill="none" stroke="#040000" stroke-linecap="round" stroke-linejoin="round" d="M45.488,116.645
	c0-34.912,28.302-63.212,63.213-63.212s63.212,28.301,63.212,63.212c0,34.911-28.301,63.212-63.212,63.212
	S45.488,151.556,45.488,116.645z M187.788,220.759c0-2.506-2.031-4.536-4.536-4.536s-4.535,2.03-4.535,4.536
	c0,2.504,2.03,4.535,4.535,4.535S187.788,223.263,187.788,220.759z M187.788,23.783c0-2.504-2.031-4.535-4.536-4.535
	s-4.535,2.031-4.535,4.535c0,2.505,2.03,4.536,4.535,4.536S187.788,26.288,187.788,23.783z M34.15,28.319
	c2.505,0,4.536-2.031,4.536-4.536c0-2.504-2.031-4.535-4.536-4.535s-4.536,2.031-4.536,4.535
	C29.614,26.288,31.645,28.319,34.15,28.319z M34.15,225.294c2.505,0,4.536-2.031,4.536-4.535c0-2.506-2.031-4.536-4.536-4.536
	s-4.536,2.03-4.536,4.536C29.614,223.263,31.645,225.294,34.15,225.294z"/>
</svg>
