<?xml version="1.0" encoding="utf-8"?>
<!-- Generator: Adobe Illustrator 16.0.4, SVG Export Plug-In . SVG Version: 6.00 Build 0)  -->
<!DOCTYPE svg PUBLIC "-//W3C//DTD SVG 1.1//EN" "http://www.w3.org/Graphics/SVG/1.1/DTD/svg11.dtd">
<svg version="1.1" id="繝_xFF6C_繧_xFF64_繝_xFF64__01"
	 xmlns="http://www.w3.org/2000/svg" xmlns:xlink="http://www.w3.org/1999/xlink" x="0px" y="0px" width="595.279px"
	 height="841.89px" viewBox="0 0 595.279 841.89" enable-background="new 0 0 595.279 841.89" xml:space="preserve">
<path fill="none" stroke="#000000" stroke-linecap="round" stroke-linejoin="round" d="M0,0h274.961v223.466H0V0z"/>
<path fill="none" stroke="#C80000" stroke-linecap="round" stroke-linejoin="round" d="M11.339,208.159
	c-2.505,0-4.536-2.03-4.536-4.535s2.031-4.536,4.536-4.536s4.535,2.031,4.535,4.536S13.843,208.159,11.339,208.159z
	 M268.157,111.733c0-2.505-2.031-4.535-4.536-4.535s-4.535,2.03-4.535,4.535c0,2.505,2.03,4.536,4.535,4.536
	S268.157,114.238,268.157,111.733z M268.157,203.624c0-2.505-2.031-4.536-4.536-4.536s-4.535,2.031-4.535,4.536
	s2.03,4.535,4.535,4.535S268.157,206.128,268.157,203.624z M268.157,11.339c0-2.505-2.031-4.536-4.536-4.536
	s-4.535,2.031-4.535,4.536s2.03,4.535,4.535,4.535S268.157,13.843,268.157,11.339z M15.874,111.733c0-2.505-2.031-4.535-4.535-4.535
	c-2.505,0-4.536,2.03-4.536,4.535c0,2.505,2.031,4.536,4.536,4.536C13.843,116.269,15.874,114.238,15.874,111.733z M11.339,15.874
	c2.505,0,4.535-2.031,4.535-4.535c0-2.505-2.031-4.536-4.535-4.536c-2.505,0-4.536,2.031-4.536,4.536
	C6.803,13.843,8.834,15.874,11.339,15.874z"/>
</svg>
