<?xml version="1.0" encoding="utf-8"?>
<!-- Generator: Adobe Illustrator 16.0.4, SVG Export Plug-In . SVG Version: 6.00 Build 0)  -->
<!DOCTYPE svg PUBLIC "-//W3C//DTD SVG 1.1//EN" "http://www.w3.org/Graphics/SVG/1.1/DTD/svg11.dtd">
<svg version="1.1" id="レイヤー_1" xmlns="http://www.w3.org/2000/svg" xmlns:xlink="http://www.w3.org/1999/xlink" x="0px"
	 y="0px" width="595.28px" height="841.89px" viewBox="0 0 595.28 841.89" enable-background="new 0 0 595.28 841.89"
	 xml:space="preserve">
<path fill="none" stroke="#004080" stroke-linecap="round" stroke-linejoin="round" d="M165.425,183.62H23.692v-79.369h141.732
	V183.62z M165.425,16.376H23.692v79.371h141.732V16.376z M25.733,191.235v56.693h184.252v-56.693H25.733z M25.733,256.433v56.692
	h184.252v-56.692H25.733z"/>
<path fill="none" stroke="#000000" stroke-linecap="round" stroke-linejoin="round" d="M154.086,110.771
	c2.661,0,4.819,2.156,4.819,4.818s-2.158,4.818-4.819,4.818s-4.818-2.156-4.818-4.818S151.425,110.771,154.086,110.771z
	 M30.212,115.589c0,2.662,2.157,4.818,4.819,4.818c2.661,0,4.818-2.156,4.818-4.818s-2.157-4.818-4.818-4.818
	C32.369,110.771,30.212,112.927,30.212,115.589z M30.212,172.282c0,2.66,2.157,4.818,4.819,4.818c2.661,0,4.818-2.158,4.818-4.818
	c0-2.662-2.157-4.82-4.818-4.82C32.369,167.462,30.212,169.62,30.212,172.282z M149.268,172.282c0,2.66,2.157,4.818,4.818,4.818
	s4.819-2.158,4.819-4.818c0-2.662-2.158-4.82-4.819-4.82S149.268,169.62,149.268,172.282z M149.268,27.714
	c0,2.662,2.157,4.82,4.818,4.82s4.819-2.158,4.819-4.82c0-2.66-2.158-4.818-4.819-4.818S149.268,25.054,149.268,27.714z
	 M30.212,27.714c0,2.662,2.157,4.82,4.819,4.82c2.661,0,4.818-2.158,4.818-4.82c0-2.66-2.157-4.818-4.818-4.818
	C32.369,22.896,30.212,25.054,30.212,27.714z M30.212,84.407c0,2.662,2.157,4.82,4.819,4.82c2.661,0,4.818-2.158,4.818-4.82
	c0-2.66-2.157-4.818-4.818-4.818C32.369,79.589,30.212,81.747,30.212,84.407z M149.268,84.407c0,2.662,2.157,4.82,4.818,4.82
	s4.819-2.158,4.819-4.82c0-2.66-2.158-4.818-4.819-4.818S149.268,81.747,149.268,84.407z M198.646,197.755
	c-2.661,0-4.818,2.158-4.818,4.818c0,2.662,2.157,4.819,4.818,4.819c2.662,0,4.819-2.157,4.819-4.819
	C203.466,199.913,201.309,197.755,198.646,197.755z M198.646,231.771c-2.661,0-4.818,2.158-4.818,4.818
	c0,2.662,2.157,4.82,4.818,4.82c2.662,0,4.819-2.158,4.819-4.82C203.466,233.929,201.309,231.771,198.646,231.771z M37.072,231.771
	c-2.662,0-4.819,2.158-4.819,4.818c0,2.662,2.157,4.82,4.819,4.82c2.661,0,4.818-2.158,4.818-4.82
	C41.891,233.929,39.733,231.771,37.072,231.771z M198.646,262.952c-2.661,0-4.818,2.157-4.818,4.818
	c0,2.662,2.157,4.818,4.818,4.818c2.662,0,4.819-2.156,4.819-4.818C203.466,265.109,201.309,262.952,198.646,262.952z
	 M198.646,296.968c-2.661,0-4.818,2.157-4.818,4.818c0,2.662,2.157,4.819,4.818,4.819c2.662,0,4.819-2.157,4.819-4.819
	C203.466,299.125,201.309,296.968,198.646,296.968z M37.072,296.968c-2.662,0-4.819,2.157-4.819,4.818
	c0,2.662,2.157,4.819,4.819,4.819c2.661,0,4.818-2.157,4.818-4.819C41.891,299.125,39.733,296.968,37.072,296.968z"/>
</svg>
