<?xml version="1.0" encoding="utf-8"?>
<!-- Generator: Adobe Illustrator 16.0.4, SVG Export Plug-In . SVG Version: 6.00 Build 0)  -->
<!DOCTYPE svg PUBLIC "-//W3C//DTD SVG 1.1//EN" "http://www.w3.org/Graphics/SVG/1.1/DTD/svg11.dtd">
<svg version="1.1" id="レイヤー_1" xmlns="http://www.w3.org/2000/svg" xmlns:xlink="http://www.w3.org/1999/xlink" x="0px"
	 y="0px" width="595.28px" height="841.89px" viewBox="0 0 595.28 841.89" enable-background="new 0 0 595.28 841.89"
	 xml:space="preserve">
<path fill="none" stroke="#004080" stroke-linecap="round" stroke-linejoin="round" d="M25.516,10h272.125v274.961H25.516V10z"/>
<path fill="none" stroke="#000000" stroke-linecap="round" stroke-linejoin="round" d="M36.854,278.44
	c-2.662,0-4.819-2.157-4.819-4.819c0-2.66,2.157-4.818,4.819-4.818c2.661,0,4.818,2.158,4.818,4.818
	C41.673,276.283,39.516,278.44,36.854,278.44z M49.087,223.481c0-2.661-2.156-4.819-4.818-4.819c-2.661,0-4.818,2.158-4.818,4.819
	s2.157,4.819,4.818,4.819C46.931,228.301,49.087,226.143,49.087,223.481z M112.86,246.692c0-2.661-2.158-4.819-4.819-4.819
	s-4.818,2.158-4.818,4.819s2.157,4.819,4.818,4.819S112.86,249.354,112.86,246.692z M166.397,273.621
	c0-2.66-2.158-4.818-4.819-4.818s-4.819,2.158-4.819,4.818c0,2.662,2.158,4.819,4.819,4.819S166.397,276.283,166.397,273.621z
	 M176.633,223.481c0-2.661-2.157-4.819-4.819-4.819c-2.661,0-4.818,2.158-4.818,4.819s2.157,4.819,4.818,4.819
	C174.476,228.301,176.633,226.143,176.633,223.481z M240.405,246.692c0-2.661-2.157-4.819-4.818-4.819
	c-2.662,0-4.819,2.158-4.819,4.819s2.157,4.819,4.819,4.819C238.248,251.512,240.405,249.354,240.405,246.692z M291.121,273.621
	c0-2.66-2.157-4.818-4.818-4.818c-2.662,0-4.819,2.158-4.819,4.818c0,2.662,2.157,4.819,4.819,4.819
	C288.964,278.44,291.121,276.283,291.121,273.621z M291.121,21.338c0-2.661-2.157-4.818-4.818-4.818
	c-2.662,0-4.819,2.157-4.819,4.818c0,2.662,2.157,4.819,4.819,4.819C288.964,26.157,291.121,24,291.121,21.338z M240.405,48.268
	c0-2.662-2.157-4.818-4.818-4.818c-2.662,0-4.819,2.156-4.819,4.818c0,2.661,2.157,4.818,4.819,4.818
	C238.248,53.086,240.405,50.929,240.405,48.268z M176.633,71.479c0-2.661-2.157-4.818-4.819-4.818c-2.661,0-4.818,2.157-4.818,4.818
	c0,2.662,2.157,4.819,4.818,4.819C174.476,76.298,176.633,74.141,176.633,71.479z M166.397,21.338c0-2.661-2.158-4.818-4.819-4.818
	s-4.819,2.157-4.819,4.818c0,2.662,2.158,4.819,4.819,4.819S166.397,24,166.397,21.338z M112.86,48.268
	c0-2.662-2.158-4.818-4.819-4.818s-4.818,2.156-4.818,4.818c0,2.661,2.157,4.818,4.818,4.818S112.86,50.929,112.86,48.268z
	 M49.087,71.479c0-2.661-2.156-4.818-4.818-4.818c-2.661,0-4.818,2.157-4.818,4.818c0,2.662,2.157,4.819,4.818,4.819
	C46.931,76.298,49.087,74.141,49.087,71.479z M41.673,21.338c0-2.661-2.157-4.818-4.818-4.818c-2.662,0-4.819,2.157-4.819,4.818
	c0,2.662,2.157,4.819,4.819,4.819C39.516,26.157,41.673,24,41.673,21.338z M197.19,155.701c0-5.48,0-10.961,0-16.441
	c4.063,0,8.127,0,12.189,0c3.287,0,5.953-2.666,5.953-5.953s-2.666-5.953-5.953-5.953c-4.062,0-8.126,0-12.189,0
	c0-3.4,0-6.803,0-10.204c-39.117,0-78.236,0-117.354,0c0,3.401,0,6.804,0,10.204c-4.063,0-8.127,0-12.189,0
	c-3.287,0-5.953,2.666-5.953,5.953s2.666,5.953,5.953,5.953c4.062,0,8.126,0,12.189,0c0,5.48,0,10.961,0,16.441
	c-4.063,0-8.127,0-12.189,0c-3.287,0-5.953,2.664-5.953,5.952s2.666,5.952,5.953,5.952c4.062,0,8.126,0,12.189,0
	c0,3.402,0,6.804,0,10.205c39.117,0,78.236,0,117.354,0c0-3.401,0-6.803,0-10.205c4.063,0,8.127,0,12.189,0
	c3.287,0,5.953-2.664,5.953-5.952s-2.666-5.952-5.953-5.952C205.317,155.701,201.254,155.701,197.19,155.701z"/>
</svg>
