<?xml version="1.0" encoding="utf-8"?>
<!-- Generator: Adobe Illustrator 16.0.4, SVG Export Plug-In . SVG Version: 6.00 Build 0)  -->
<!DOCTYPE svg PUBLIC "-//W3C//DTD SVG 1.1//EN" "http://www.w3.org/Graphics/SVG/1.1/DTD/svg11.dtd">
<svg version="1.1" id="レイヤー_1" xmlns="http://www.w3.org/2000/svg" xmlns:xlink="http://www.w3.org/1999/xlink" x="0px"
	 y="0px" width="595.279px" height="841.89px" viewBox="0 0 595.279 841.89" enable-background="new 0 0 595.279 841.89"
	 xml:space="preserve">
<path fill="none" stroke="#004080" stroke-linecap="round" stroke-linejoin="round" d="M98.692,0v274.96H0V0H98.692z"/>
<path fill="none" stroke="#000000" stroke-linecap="round" stroke-linejoin="round" d="M15.024,11.338
	c0-2.661,2.156-4.818,4.817-4.818c2.662,0,4.819,2.157,4.819,4.818c0,2.662-2.157,4.819-4.819,4.819
	C17.18,16.158,15.024,14,15.024,11.338z M19.842,268.441c2.662,0,4.819-2.157,4.819-4.818c0-2.662-2.157-4.819-4.819-4.819
	c-2.661,0-4.817,2.157-4.817,4.819C15.024,266.284,17.18,268.441,19.842,268.441z M87.352,268.441c2.662,0,4.819-2.157,4.819-4.818
	c0-2.662-2.157-4.819-4.819-4.819c-2.66,0-4.817,2.157-4.817,4.819C82.534,266.284,84.692,268.441,87.352,268.441z M87.352,16.158
	c2.662,0,4.819-2.157,4.819-4.819c0-2.661-2.157-4.818-4.819-4.818c-2.66,0-4.817,2.157-4.817,4.818S84.692,16.158,87.352,16.158z"
	/>
</svg>
