<?xml version="1.0" encoding="utf-8"?>
<!-- Generator: Adobe Illustrator 16.0.4, SVG Export Plug-In . SVG Version: 6.00 Build 0)  -->
<!DOCTYPE svg PUBLIC "-//W3C//DTD SVG 1.1//EN" "http://www.w3.org/Graphics/SVG/1.1/DTD/svg11.dtd">
<svg version="1.1" id="レイヤー_1" xmlns="http://www.w3.org/2000/svg" xmlns:xlink="http://www.w3.org/1999/xlink" x="0px"
	 y="0px" width="595.28px" height="841.89px" viewBox="0 0 595.28 841.89" enable-background="new 0 0 595.28 841.89"
	 xml:space="preserve">
<path fill="none" stroke="#004080" stroke-linecap="round" stroke-linejoin="round" d="M581.104,569.929H14.176V3h566.929V569.929z"
	/>
<path fill="none" stroke="#000000" stroke-linecap="round" stroke-linejoin="round" d="M119.058,27.661
	c-2.661,0-4.819-2.157-4.819-4.819c0-2.661,2.158-4.818,4.819-4.818s4.818,2.157,4.818,4.818
	C123.876,25.504,121.719,27.661,119.058,27.661z M208.916,22.842c0-2.661-2.157-4.818-4.819-4.818c-2.661,0-4.818,2.157-4.818,4.818
	c0,2.662,2.157,4.819,4.818,4.819C206.759,27.661,208.916,25.504,208.916,22.842z M302.459,22.842c0-2.661-2.157-4.818-4.819-4.818
	c-2.661,0-4.818,2.157-4.818,4.818c0,2.662,2.157,4.819,4.818,4.819C300.302,27.661,302.459,25.504,302.459,22.842z M396.003,22.842
	c0-2.661-2.158-4.818-4.819-4.818s-4.819,2.157-4.819,4.818c0,2.662,2.158,4.819,4.819,4.819S396.003,25.504,396.003,22.842z
	 M481.042,22.842c0-2.661-2.158-4.818-4.819-4.818s-4.819,2.157-4.819,4.818c0,2.662,2.158,4.819,4.819,4.819
	S481.042,25.504,481.042,22.842z M34.019,103.062c-2.662,0-4.819,2.157-4.819,4.818c0,2.662,2.157,4.819,4.819,4.819
	c2.661,0,4.818-2.157,4.818-4.819C38.837,105.22,36.68,103.062,34.019,103.062z M34.019,188.102c-2.662,0-4.819,2.158-4.819,4.819
	s2.157,4.819,4.819,4.819c2.661,0,4.818-2.158,4.818-4.819S36.68,188.102,34.019,188.102z M34.019,281.645
	c-2.662,0-4.819,2.158-4.819,4.819s2.157,4.819,4.819,4.819c2.661,0,4.818-2.158,4.818-4.819S36.68,281.645,34.019,281.645z
	 M34.019,375.188c-2.662,0-4.819,2.157-4.819,4.819c0,2.661,2.157,4.818,4.819,4.818c2.661,0,4.818-2.157,4.818-4.818
	C38.837,377.346,36.68,375.188,34.019,375.188z M34.019,460.229c-2.662,0-4.819,2.156-4.819,4.818c0,2.661,2.157,4.818,4.819,4.818
	c2.661,0,4.818-2.157,4.818-4.818C38.837,462.385,36.68,460.229,34.019,460.229z M34.019,545.268c-2.662,0-4.819,2.157-4.819,4.818
	c0,2.662,2.157,4.818,4.819,4.818c2.661,0,4.818-2.156,4.818-4.818C38.837,547.425,36.68,545.268,34.019,545.268z M114.238,550.086
	c0,2.662,2.158,4.818,4.819,4.818s4.818-2.156,4.818-4.818c0-2.661-2.157-4.818-4.818-4.818S114.238,547.425,114.238,550.086z
	 M199.278,550.086c0,2.662,2.157,4.818,4.818,4.818c2.662,0,4.819-2.156,4.819-4.818c0-2.661-2.157-4.818-4.819-4.818
	C201.436,545.268,199.278,547.425,199.278,550.086z M292.821,550.086c0,2.662,2.157,4.818,4.818,4.818
	c2.662,0,4.819-2.156,4.819-4.818c0-2.661-2.157-4.818-4.819-4.818C294.979,545.268,292.821,547.425,292.821,550.086z
	 M386.364,550.086c0,2.662,2.158,4.818,4.819,4.818s4.819-2.156,4.819-4.818c0-2.661-2.158-4.818-4.819-4.818
	S386.364,547.425,386.364,550.086z M471.403,550.086c0,2.662,2.158,4.818,4.819,4.818s4.819-2.156,4.819-4.818
	c0-2.661-2.158-4.818-4.819-4.818S471.403,547.425,471.403,550.086z M556.443,550.086c0,2.662,2.157,4.818,4.819,4.818
	c2.661,0,4.818-2.156,4.818-4.818c0-2.661-2.157-4.818-4.818-4.818C558.601,545.268,556.443,547.425,556.443,550.086z
	 M561.263,469.865c2.661,0,4.818-2.157,4.818-4.818c0-2.662-2.157-4.818-4.818-4.818c-2.662,0-4.819,2.156-4.819,4.818
	C556.443,467.708,558.601,469.865,561.263,469.865z M561.263,384.826c2.661,0,4.818-2.157,4.818-4.818
	c0-2.662-2.157-4.819-4.818-4.819c-2.662,0-4.819,2.157-4.819,4.819C556.443,382.669,558.601,384.826,561.263,384.826z
	 M561.263,291.283c2.661,0,4.818-2.158,4.818-4.819s-2.157-4.819-4.818-4.819c-2.662,0-4.819,2.158-4.819,4.819
	S558.601,291.283,561.263,291.283z M561.263,197.74c2.661,0,4.818-2.158,4.818-4.819s-2.157-4.819-4.818-4.819
	c-2.662,0-4.819,2.158-4.819,4.819S558.601,197.74,561.263,197.74z M561.263,112.7c2.661,0,4.818-2.157,4.818-4.819
	c0-2.661-2.157-4.818-4.818-4.818c-2.662,0-4.819,2.157-4.819,4.818C556.443,110.543,558.601,112.7,561.263,112.7z M561.263,27.661
	c2.661,0,4.818-2.157,4.818-4.819c0-2.661-2.157-4.818-4.818-4.818c-2.662,0-4.819,2.157-4.819,4.818
	C556.443,25.504,558.601,27.661,561.263,27.661z M38.837,22.842c0-2.661-2.157-4.818-4.818-4.818c-2.662,0-4.819,2.157-4.819,4.818
	c0,2.662,2.157,4.819,4.819,4.819C36.68,27.661,38.837,25.504,38.837,22.842z M504.569,223.252c2.661,0,4.818-2.158,4.818-4.819
	s-2.157-4.819-4.818-4.819c-2.662,0-4.818,2.158-4.818,4.819S501.907,223.252,504.569,223.252z M90.711,75.85
	c2.661,0,4.819-2.157,4.819-4.818c0-2.662-2.158-4.819-4.819-4.819s-4.818,2.157-4.818,4.819
	C85.893,73.692,88.05,75.85,90.711,75.85z M504.569,75.85c2.661,0,4.818-2.157,4.818-4.818c0-2.662-2.157-4.819-4.818-4.819
	c-2.662,0-4.818,2.157-4.818,4.819C499.751,73.692,501.907,75.85,504.569,75.85z M95.53,218.433c0-2.661-2.158-4.819-4.819-4.819
	s-4.818,2.158-4.818,4.819s2.157,4.819,4.818,4.819S95.53,221.094,95.53,218.433z"/>
</svg>
