<?xml version="1.0" encoding="utf-8"?>
<!-- Generator: Adobe Illustrator 16.0.4, SVG Export Plug-In . SVG Version: 6.00 Build 0)  -->
<!DOCTYPE svg PUBLIC "-//W3C//DTD SVG 1.1//EN" "http://www.w3.org/Graphics/SVG/1.1/DTD/svg11.dtd">
<svg version="1.1" id="レイヤー_1" xmlns="http://www.w3.org/2000/svg" xmlns:xlink="http://www.w3.org/1999/xlink" x="0px"
	 y="0px" width="595.279px" height="841.89px" viewBox="0 0 595.279 841.89" enable-background="new 0 0 595.279 841.89"
	 xml:space="preserve">
<rect x="0" fill="none" stroke="#E60012" stroke-linecap="round" stroke-linejoin="round" width="181.416" height="549.923"/>
<path fill="none" stroke="#000000" stroke-linecap="round" stroke-linejoin="round" d="M165.259,11.339
	c0-2.662,2.157-4.82,4.819-4.82s4.817,2.158,4.817,4.82c0,2.66-2.156,4.818-4.818,4.818C167.416,16.158,165.259,14,165.259,11.339z
	 M170.077,101.197c2.662,0,4.818-2.157,4.818-4.818c0-2.662-2.156-4.819-4.818-4.819c-2.661,0-4.818,2.157-4.818,4.819
	C165.259,99.04,167.416,101.197,170.077,101.197z M170.077,186.236c2.662,0,4.818-2.157,4.818-4.818s-2.156-4.819-4.818-4.819
	c-2.661,0-4.818,2.158-4.818,4.819S167.416,186.236,170.077,186.236z M170.077,279.78c2.662,0,4.818-2.157,4.818-4.819
	c0-2.661-2.156-4.818-4.818-4.818c-2.661,0-4.818,2.157-4.818,4.818C165.259,277.623,167.416,279.78,170.077,279.78z
	 M170.077,373.323c2.662,0,4.818-2.157,4.818-4.819c0-2.661-2.156-4.818-4.818-4.818c-2.661,0-4.818,2.157-4.818,4.818
	C165.259,371.166,167.416,373.323,170.077,373.323z M170.077,458.363c2.662,0,4.818-2.158,4.818-4.818s-2.156-4.818-4.818-4.818
	c-2.661,0-4.818,2.158-4.818,4.818S167.416,458.363,170.077,458.363z M170.077,543.402c2.662,0,4.818-2.158,4.818-4.818
	s-2.156-4.818-4.818-4.818c-2.661,0-4.818,2.158-4.818,4.818S167.416,543.402,170.077,543.402z M11.337,543.402
	c2.662,0,4.818-2.158,4.818-4.818s-2.156-4.818-4.818-4.818c-2.661,0-4.817,2.158-4.817,4.818S8.676,543.402,11.337,543.402z
	 M11.337,458.363c2.662,0,4.818-2.158,4.818-4.818s-2.156-4.818-4.818-4.818c-2.661,0-4.817,2.158-4.817,4.818
	S8.676,458.363,11.337,458.363z M11.337,373.323c2.662,0,4.818-2.157,4.818-4.819c0-2.661-2.156-4.818-4.818-4.818
	c-2.661,0-4.817,2.157-4.817,4.818C6.52,371.166,8.676,373.323,11.337,373.323z M11.337,279.78c2.662,0,4.818-2.157,4.818-4.819
	c0-2.661-2.156-4.818-4.818-4.818c-2.661,0-4.817,2.157-4.817,4.818C6.52,277.623,8.676,279.78,11.337,279.78z M11.337,186.236
	c2.662,0,4.818-2.157,4.818-4.818s-2.156-4.819-4.818-4.819c-2.661,0-4.817,2.158-4.817,4.819S8.676,186.236,11.337,186.236z
	 M11.337,101.197c2.662,0,4.818-2.157,4.818-4.818c0-2.662-2.156-4.819-4.818-4.819c-2.661,0-4.817,2.157-4.817,4.819
	C6.52,99.04,8.676,101.197,11.337,101.197z M11.337,16.158c2.662,0,4.818-2.158,4.818-4.818c0-2.662-2.155-4.82-4.817-4.82
	S6.52,8.678,6.52,11.34C6.52,14,8.676,16.158,11.337,16.158z"/>
</svg>
