<?xml version="1.0" encoding="utf-8"?>
<!-- Generator: Adobe Illustrator 16.0.4, SVG Export Plug-In . SVG Version: 6.00 Build 0)  -->
<!DOCTYPE svg PUBLIC "-//W3C//DTD SVG 1.1//EN" "http://www.w3.org/Graphics/SVG/1.1/DTD/svg11.dtd">
<svg version="1.1" id="レイヤー_1" xmlns="http://www.w3.org/2000/svg" xmlns:xlink="http://www.w3.org/1999/xlink" x="0px"
	 y="0px" width="595.28px" height="841.89px" viewBox="0 0 595.28 841.89" enable-background="new 0 0 595.28 841.89"
	 xml:space="preserve">
<rect x="23.286" y="137.266" fill="none" stroke="#004080" stroke-linecap="round" stroke-linejoin="round" width="96.378" height="96.377"/>
<rect x="26.121" y="22.037" fill="none" stroke="#004080" stroke-linecap="round" stroke-linejoin="round" width="96.378" height="96.377"/>
<path fill="none" stroke="#000000" stroke-linecap="round" stroke-linejoin="round" d="M108.326,227.123
	c-2.662,0-4.819-2.156-4.819-4.818s2.157-4.818,4.819-4.818c2.661,0,4.818,2.156,4.818,4.818S110.987,227.123,108.326,227.123z
	 M39.443,222.305c0-2.662-2.157-4.818-4.818-4.818s-4.818,2.156-4.818,4.818s2.157,4.818,4.818,4.818S39.443,224.967,39.443,222.305
	z M39.443,148.604c0-2.66-2.157-4.818-4.818-4.818s-4.818,2.158-4.818,4.818c0,2.662,2.157,4.818,4.818,4.818
	S39.443,151.266,39.443,148.604z M42.278,33.375c0-2.66-2.157-4.818-4.819-4.818c-2.66,0-4.818,2.158-4.818,4.818
	c0,2.662,2.158,4.82,4.818,4.82C40.121,38.195,42.278,36.037,42.278,33.375z M115.979,33.375c0-2.66-2.157-4.818-4.819-4.818
	c-2.661,0-4.818,2.158-4.818,4.818c0,2.662,2.157,4.82,4.818,4.82C113.822,38.195,115.979,36.037,115.979,33.375z M115.979,107.076
	c0-2.662-2.157-4.818-4.819-4.818c-2.661,0-4.818,2.156-4.818,4.818s2.157,4.818,4.818,4.818
	C113.822,111.895,115.979,109.738,115.979,107.076z M42.278,107.076c0-2.662-2.157-4.818-4.819-4.818
	c-2.66,0-4.818,2.156-4.818,4.818s2.158,4.818,4.818,4.818C40.121,111.895,42.278,109.738,42.278,107.076z M113.145,148.604
	c0-2.66-2.157-4.818-4.818-4.818c-2.662,0-4.819,2.158-4.819,4.818c0,2.662,2.157,4.818,4.819,4.818
	C110.987,153.422,113.145,151.266,113.145,148.604z M100.521,174.115c-6.262-16.041-24.343-23.969-40.385-17.707
	s-23.97,24.342-17.708,40.385c6.263,16.041,24.343,23.971,40.386,17.707C98.855,208.238,106.784,190.158,100.521,174.115z
	 M115.979,185.455c0-2.662-2.157-4.82-4.819-4.82c-2.661,0-4.818,2.158-4.818,4.82c0,2.66,2.157,4.818,4.818,4.818
	C113.822,190.273,115.979,188.115,115.979,185.455z M71.476,140.951c-2.661,0-4.819,2.156-4.819,4.818s2.158,4.818,4.819,4.818
	s4.819-2.156,4.819-4.818S74.137,140.951,71.476,140.951z M26.972,185.455c0,2.66,2.157,4.818,4.818,4.818s4.819-2.158,4.819-4.818
	c0-2.662-2.158-4.82-4.819-4.82S26.972,182.793,26.972,185.455z M71.476,229.959c2.661,0,4.819-2.158,4.819-4.82
	c0-2.66-2.158-4.818-4.819-4.818s-4.819,2.158-4.819,4.818C66.656,227.801,68.814,229.959,71.476,229.959z M105.491,70.227
	c0-17.221-13.96-31.182-31.182-31.182c-17.221,0-31.181,13.961-31.181,31.182s13.96,31.18,31.181,31.18
	C91.531,101.406,105.491,87.447,105.491,70.227z M105.491,70.227c0-17.221-13.96-31.182-31.182-31.182
	c-17.221,0-31.181,13.961-31.181,31.182s13.96,31.18,31.181,31.18C91.531,101.406,105.491,87.447,105.491,70.227z"/>
</svg>
