<?xml version="1.0" encoding="utf-8"?>
<!-- Generator: Adobe Illustrator 16.0.4, SVG Export Plug-In . SVG Version: 6.00 Build 0)  -->
<!DOCTYPE svg PUBLIC "-//W3C//DTD SVG 1.1//EN" "http://www.w3.org/Graphics/SVG/1.1/DTD/svg11.dtd">
<svg version="1.1" id="レイヤー_1" xmlns="http://www.w3.org/2000/svg" xmlns:xlink="http://www.w3.org/1999/xlink" x="0px"
	 y="0px" width="595.28px" height="841.89px" viewBox="0 0 595.28 841.89" enable-background="new 0 0 595.28 841.89"
	 xml:space="preserve">
<path fill="none" stroke="#004080" stroke-linecap="round" stroke-linejoin="round" d="M136.001,337.861
	c0,34.598-28.048,62.646-62.646,62.646c-34.599,0-62.646-28.048-62.646-62.646c0-34.599,28.047-62.646,62.646-62.646
	C107.953,275.215,136.001,303.262,136.001,337.861z M176.764,179.344c0-42.739-34.647-77.386-77.386-77.386
	c-42.739,0-77.386,34.646-77.386,77.386s34.646,77.386,77.386,77.386C142.117,256.729,176.764,222.083,176.764,179.344z
	 M138.128,87.216c11.129,15.896,31.282,22.739,49.789,16.905c18.508-5.833,31.095-22.995,31.097-42.4s-12.581-36.57-31.087-42.408
	c-18.506-5.837-38.661,1.001-49.793,16.895c-25.652,0-51.305,0-76.956,0c-14.213,0-25.685,11.616-25.507,25.827
	c0.178,14.213,11.938,25.537,26.146,25.182C87.254,87.216,112.691,87.216,138.128,87.216z"/>
<path fill="none" stroke="#000000" stroke-linecap="round" stroke-linejoin="round" d="M73.355,369.042
	c-17.221,0-31.181-13.96-31.181-31.181s13.96-31.181,31.181-31.181s31.181,13.96,31.181,31.181S90.576,369.042,73.355,369.042z
	 M78.175,298.176c0-2.662-2.158-4.819-4.819-4.819s-4.819,2.157-4.819,4.819c0,2.661,2.158,4.819,4.819,4.819
	S78.175,300.837,78.175,298.176z M115.024,301.01c0-2.661-2.157-4.819-4.818-4.819c-2.662,0-4.819,2.158-4.819,4.819
	c0,2.662,2.157,4.819,4.819,4.819C112.867,305.829,115.024,303.672,115.024,301.01z M41.324,301.01c0-2.661-2.158-4.819-4.819-4.819
	s-4.819,2.158-4.819,4.819c0,2.662,2.158,4.819,4.819,4.819S41.324,303.672,41.324,301.01z M38.489,337.861
	c0-2.662-2.158-4.819-4.819-4.819s-4.818,2.158-4.818,4.819c0,2.661,2.157,4.819,4.818,4.819S38.489,340.522,38.489,337.861z
	 M41.324,374.71c0-2.66-2.158-4.818-4.819-4.818s-4.819,2.158-4.819,4.818c0,2.662,2.158,4.819,4.819,4.819
	S41.324,377.373,41.324,374.71z M78.175,377.546c0-2.662-2.158-4.819-4.819-4.819s-4.819,2.157-4.819,4.819
	c0,2.66,2.158,4.818,4.819,4.818S78.175,380.207,78.175,377.546z M115.024,374.71c0-2.66-2.157-4.818-4.818-4.818
	c-2.662,0-4.819,2.158-4.819,4.818c0,2.662,2.157,4.819,4.819,4.819C112.867,379.53,115.024,377.373,115.024,374.71z
	 M117.859,337.861c0-2.662-2.157-4.819-4.819-4.819c-2.661,0-4.818,2.158-4.818,4.819c0,2.661,2.157,4.819,4.818,4.819
	C115.702,342.68,117.859,340.522,117.859,337.861z M99.378,223.848c2.661,0,4.818-2.157,4.818-4.819
	c0-2.661-2.157-4.818-4.818-4.818c-2.662,0-4.819,2.157-4.819,4.818C94.559,221.69,96.716,223.848,99.378,223.848z M62.527,221.013
	c2.661,0,4.819-2.157,4.819-4.818c0-2.662-2.158-4.819-4.819-4.819s-4.819,2.157-4.819,4.819
	C57.708,218.855,59.866,221.013,62.527,221.013z M59.692,184.163c2.662,0,4.819-2.158,4.819-4.819s-2.158-4.819-4.819-4.819
	c-2.661,0-4.818,2.158-4.818,4.819S57.031,184.163,59.692,184.163z M62.527,147.312c2.661,0,4.819-2.158,4.819-4.819
	s-2.158-4.819-4.819-4.819s-4.819,2.158-4.819,4.819S59.866,147.312,62.527,147.312z M99.378,144.478
	c2.661,0,4.818-2.158,4.818-4.819s-2.157-4.818-4.818-4.818c-2.662,0-4.819,2.157-4.819,4.818S96.716,144.478,99.378,144.478z
	 M136.228,147.312c2.662,0,4.819-2.158,4.819-4.819s-2.157-4.819-4.819-4.819s-4.819,2.158-4.819,4.819
	S133.566,147.312,136.228,147.312z M136.228,221.013c2.662,0,4.819-2.157,4.819-4.818c0-2.662-2.157-4.819-4.819-4.819
	s-4.819,2.157-4.819,4.819C131.409,218.855,133.566,221.013,136.228,221.013z M139.062,184.163c2.662,0,4.819-2.158,4.819-4.819
	s-2.158-4.819-4.819-4.819c-2.661,0-4.818,2.158-4.818,4.819S136.401,184.163,139.062,184.163z M99.378,210.524
	c17.221,0,31.181-13.96,31.181-31.181s-13.96-31.181-31.181-31.181c-17.221,0-31.182,13.96-31.182,31.181
	S82.157,210.524,99.378,210.524z M157.543,61.716c0,9.393,7.615,17.008,17.008,17.008c9.394,0,17.008-7.614,17.008-17.008
	s-7.614-17.008-17.008-17.008C165.159,44.708,157.543,52.322,157.543,61.716z M56.092,62.128c0.229,2.809,2.689,4.9,5.498,4.674
	c2.809-0.229,4.901-2.691,4.673-5.5c-0.228-2.809-2.689-4.9-5.499-4.672C57.957,56.858,55.864,59.319,56.092,62.128z
	 M140.558,57.038c-2.583,0-4.677,2.094-4.677,4.678c0,2.582,2.094,4.677,4.677,4.677s4.677-2.095,4.677-4.677
	C145.235,59.132,143.141,57.038,140.558,57.038z M208.544,66.393c2.583,0,4.677-2.094,4.677-4.677s-2.094-4.678-4.677-4.678
	s-4.677,2.095-4.677,4.678S205.961,66.393,208.544,66.393z M179.229,27.723c0-2.583-2.095-4.678-4.678-4.678
	s-4.677,2.095-4.677,4.678s2.094,4.677,4.677,4.677S179.229,30.306,179.229,27.723z M169.875,95.709
	c0,2.583,2.094,4.677,4.677,4.677s4.678-2.094,4.678-4.677s-2.095-4.677-4.678-4.677S169.875,93.126,169.875,95.709z"/>
</svg>
