<?xml version="1.0" encoding="utf-8"?>
<!-- Generator: Adobe Illustrator 16.0.4, SVG Export Plug-In . SVG Version: 6.00 Build 0)  -->
<!DOCTYPE svg PUBLIC "-//W3C//DTD SVG 1.1//EN" "http://www.w3.org/Graphics/SVG/1.1/DTD/svg11.dtd">
<svg version="1.1" id="レイヤー_1" xmlns="http://www.w3.org/2000/svg" xmlns:xlink="http://www.w3.org/1999/xlink" x="0px"
	 y="0px" width="595.28px" height="841.89px" viewBox="0 0 595.28 841.89" enable-background="new 0 0 595.28 841.89"
	 xml:space="preserve">
<path fill="none" stroke="#E60012" stroke-linecap="round" stroke-linejoin="round" d="M308.263,102.691L111.31,299.649H91.264
	l-72.135-72.183V4h289.134V102.691z"/>
<path fill="none" stroke="#000000" stroke-linecap="round" stroke-linejoin="round" d="M38.972,211.309
	c2.662,0,4.819,2.157,4.819,4.818c0,2.662-2.157,4.819-4.819,4.819c-2.661,0-4.818-2.158-4.818-4.819
	C34.153,213.466,36.311,211.309,38.972,211.309z M34.153,115.733c0,2.661,2.157,4.819,4.818,4.819c2.662,0,4.819-2.158,4.819-4.819
	c0-2.662-2.157-4.819-4.819-4.819C36.311,110.914,34.153,113.071,34.153,115.733z M34.153,23.843c0,2.661,2.157,4.818,4.818,4.818
	c2.662,0,4.819-2.157,4.819-4.818c0-2.662-2.157-4.819-4.819-4.819C36.311,19.023,34.153,21.181,34.153,23.843z M158.877,23.843
	c0,2.661,2.158,4.818,4.819,4.818s4.819-2.157,4.819-4.818c0-2.662-2.158-4.819-4.819-4.819S158.877,21.181,158.877,23.843z
	 M283.602,23.843c0,2.661,2.157,4.818,4.818,4.818c2.662,0,4.819-2.157,4.819-4.818c0-2.662-2.157-4.819-4.819-4.819
	C285.759,19.023,283.602,21.181,283.602,23.843z M283.602,91.353c0,2.662,2.157,4.819,4.818,4.819c2.662,0,4.819-2.157,4.819-4.819
	c0-2.661-2.157-4.818-4.819-4.818C285.759,86.534,283.602,88.691,283.602,91.353z M186.691,143.533
	c-3.878-3.873-7.756-7.745-11.634-11.618c2.871-2.875,5.742-5.75,8.613-8.625c2.323-2.326,2.32-6.095-0.006-8.418
	c-2.326-2.323-6.096-2.32-8.419,0.006c-2.871,2.875-5.741,5.75-8.612,8.625c-2.407-2.404-4.813-4.808-7.222-7.211
	c-27.641,27.68-55.283,55.359-82.925,83.039c2.407,2.403,4.814,4.807,7.221,7.211c-2.87,2.875-5.741,5.75-8.612,8.625
	c-2.323,2.326-2.32,6.095,0.006,8.418s6.095,2.32,8.418-0.006c2.871-2.875,5.742-5.75,8.613-8.625
	c3.878,3.873,7.756,7.745,11.633,11.618c-2.871,2.875-5.742,5.75-8.612,8.625c-2.323,2.326-2.32,6.095,0.006,8.418
	s6.095,2.32,8.418-0.006c2.871-2.875,5.742-5.75,8.613-8.625c2.407,2.404,4.813,4.808,7.221,7.211
	c27.642-27.68,55.283-55.359,82.925-83.039c-2.406-2.404-4.813-4.807-7.221-7.211c2.871-2.875,5.742-5.75,8.613-8.625
	c2.323-2.327,2.32-6.096-0.006-8.419s-6.096-2.32-8.418,0.006C192.434,137.783,189.562,140.658,186.691,143.533z"/>
</svg>
