<?xml version="1.0" encoding="utf-8"?>
<!-- Generator: Adobe Illustrator 16.0.4, SVG Export Plug-In . SVG Version: 6.00 Build 0)  -->
<!DOCTYPE svg PUBLIC "-//W3C//DTD SVG 1.1//EN" "http://www.w3.org/Graphics/SVG/1.1/DTD/svg11.dtd">
<svg version="1.1" id="レイヤー_1" xmlns="http://www.w3.org/2000/svg" xmlns:xlink="http://www.w3.org/1999/xlink" x="0px"
	 y="0px" width="595.279px" height="841.89px" viewBox="0 0 595.279 841.89" enable-background="new 0 0 595.279 841.89"
	 xml:space="preserve">
<path fill="none" stroke="#004080" stroke-linecap="round" stroke-linejoin="round" d="M0,0H171.78v162.883h-27.227v56.77H27.228
	v-56.77H0V0z"/>
<path fill="none" stroke="#000000" stroke-linecap="round" stroke-linejoin="round" d="M11.34,156.364
	c-2.661,0-4.819-2.158-4.819-4.82c0-2.66,2.158-4.818,4.819-4.818c2.66,0,4.817,2.158,4.817,4.818
	C16.158,154.205,14,156.364,11.34,156.364z M16.158,81.442c0-2.662-2.157-4.82-4.817-4.82c-2.661,0-4.819,2.158-4.819,4.82
	c0,2.66,2.158,4.818,4.819,4.818C14.001,86.26,16.158,84.102,16.158,81.442z M16.158,11.338c0-2.662-2.157-4.818-4.817-4.818
	c-2.661,0-4.819,2.156-4.819,4.818c0,2.662,2.158,4.818,4.819,4.818C14.001,16.156,16.158,14,16.158,11.338z M90.709,11.338
	c0-2.662-2.157-4.818-4.818-4.818s-4.818,2.156-4.818,4.818c0,2.662,2.157,4.818,4.818,4.818S90.709,14,90.709,11.338z
	 M165.261,11.338c0-2.662-2.158-4.818-4.818-4.818c-2.662,0-4.819,2.156-4.819,4.818c0,2.662,2.157,4.818,4.819,4.818
	C163.103,16.157,165.261,14,165.261,11.338z M165.261,81.442c0-2.662-2.158-4.82-4.818-4.82c-2.662,0-4.819,2.158-4.819,4.82
	c0,2.66,2.157,4.818,4.819,4.818C163.103,86.26,165.261,84.102,165.261,81.442z M165.261,151.543c0-2.66-2.158-4.818-4.818-4.818
	c-2.662,0-4.819,2.158-4.819,4.818c0,2.662,2.157,4.82,4.819,4.82C163.103,156.364,165.261,154.205,165.261,151.543z M94.112,193.35
	c0,3.938,0,7.877,0,11.816c0,0.123,0,0.248,0,0.373c0,3.287,2.665,5.951,5.952,5.951c3.288,0,5.953-2.664,5.953-5.951
	c0-4.064,0-8.127,0-12.189c3.396,0,6.795,0,10.19,0c0-39.242,0-78.484,0-117.727c-3.396,0-6.794,0-10.19,0c0-3.939,0-7.879,0-11.816
	c0-3.289-2.665-5.953-5.953-5.953c-3.287,0-5.952,2.664-5.952,5.953c0,3.938,0,7.877,0,11.816c-5.479,0-10.96,0-16.439,0
	c0-3.939,0-7.879,0-11.816c0-3.289-2.666-5.953-5.953-5.953s-5.953,2.664-5.953,5.953c0,3.938,0,7.877,0,11.816
	c-3.396,0-6.794,0-10.191,0c0,39.242,0,78.484,0,117.727c3.397,0,6.795,0,10.191,0c0,4.062,0,8.125,0,12.189
	c0,3.287,2.666,5.951,5.953,5.951s5.953-2.664,5.953-5.951c0-0.125,0-0.25,0-0.373c0-3.939,0-7.879,0-11.816
	C83.152,193.35,88.632,193.35,94.112,193.35z"/>
</svg>
