<?xml version="1.0" encoding="utf-8"?>
<!-- Generator: Adobe Illustrator 16.0.4, SVG Export Plug-In . SVG Version: 6.00 Build 0)  -->
<!DOCTYPE svg PUBLIC "-//W3C//DTD SVG 1.1//EN" "http://www.w3.org/Graphics/SVG/1.1/DTD/svg11.dtd">
<svg version="1.1" id="レイヤー_1" xmlns="http://www.w3.org/2000/svg" xmlns:xlink="http://www.w3.org/1999/xlink" x="0px"
	 y="0px" width="595.279px" height="841.89px" viewBox="0 0 595.279 841.89" enable-background="new 0 0 595.279 841.89"
	 xml:space="preserve">
<path fill="none" stroke="#004080" stroke-linecap="round" stroke-linejoin="round" d="M0,133.228h213.728v113.904H0V133.228z
	 M0,113.904h213.728V0H0V113.904z"/>
<path fill="none" stroke="#000000" stroke-linecap="round" stroke-linejoin="round" d="M207.208,19.842
	c0,2.662-2.157,4.819-4.818,4.819c-2.662,0-4.818-2.157-4.818-4.819c0-2.66,2.156-4.818,4.818-4.818
	C205.051,15.023,207.208,17.181,207.208,19.842z M202.39,89.242c-2.662,0-4.818,2.158-4.818,4.82c0,2.66,2.156,4.818,4.818,4.818
	c2.661,0,4.818-2.158,4.818-4.818C207.208,91.4,205.051,89.242,202.39,89.242z M202.39,148.252c-2.662,0-4.818,2.157-4.818,4.818
	c0,2.662,2.156,4.819,4.818,4.819c2.661,0,4.818-2.157,4.818-4.819C207.208,150.409,205.051,148.252,202.39,148.252z M202.39,222.47
	c-2.662,0-4.818,2.158-4.818,4.819s2.156,4.819,4.818,4.819c2.661,0,4.818-2.158,4.818-4.819S205.051,222.47,202.39,222.47z
	 M80.645,190.18c0-2.661-2.156-4.819-4.817-4.819c-2.662,0-4.819,2.158-4.819,4.819s2.157,4.819,4.819,4.819
	C78.489,195,80.645,192.842,80.645,190.18z M177.165,48.99c3.288,0,5.953-2.664,5.953-5.951c0-3.288-2.665-5.953-5.953-5.953
	c-4.062,0-8.125,0-12.188,0c0-3.402,0-6.804,0-10.205c-39.118,0-78.235,0-117.354,0c0,3.401,0,6.803,0,10.205
	c-4.062,0-8.126,0-12.189,0c-3.287,0-5.952,2.665-5.952,5.953c0,3.287,2.665,5.951,5.952,5.951c4.063,0,8.127,0,12.189,0
	c0,5.481,0,10.961,0,16.441c-4.062,0-8.126,0-12.189,0c-3.287,0-5.952,2.666-5.952,5.953s2.665,5.953,5.952,5.953
	c4.063,0,8.127,0,12.189,0c0,3.401,0,6.803,0,10.204c39.118,0,78.235,0,117.354,0c0-3.401,0-6.803,0-10.204
	c4.063,0,8.126,0,12.188,0c3.288,0,5.953-2.666,5.953-5.953s-2.665-5.953-5.953-5.953c-4.062,0-8.125,0-12.188,0
	c0-5.48,0-10.96,0-16.441C169.04,48.99,173.102,48.99,177.165,48.99z"/>
</svg>
