<?xml version="1.0" encoding="utf-8"?>
<!-- Generator: Adobe Illustrator 16.0.4, SVG Export Plug-In . SVG Version: 6.00 Build 0)  -->
<!DOCTYPE svg PUBLIC "-//W3C//DTD SVG 1.1//EN" "http://www.w3.org/Graphics/SVG/1.1/DTD/svg11.dtd">
<svg version="1.1" id="レイヤー_1" xmlns="http://www.w3.org/2000/svg" xmlns:xlink="http://www.w3.org/1999/xlink" x="0px"
	 y="0px" width="595.28px" height="841.89px" viewBox="0 0 595.28 841.89" enable-background="new 0 0 595.28 841.89"
	 xml:space="preserve">
<path fill="none" stroke="#E60012" stroke-linecap="round" stroke-linejoin="round" d="M176.264,210.019H21.492V7.946h154.771
	V210.019z"/>
<path fill="none" stroke="#000000" stroke-linecap="round" stroke-linejoin="round" d="M32.83,24.103
	c-2.661,0-4.818-2.157-4.818-4.819s2.157-4.819,4.818-4.819c2.662,0,4.819,2.157,4.819,4.819S35.492,24.103,32.83,24.103z
	 M37.649,108.982c0-2.662-2.157-4.819-4.819-4.819c-2.661,0-4.818,2.157-4.818,4.819s2.157,4.819,4.818,4.819
	C35.492,113.801,37.649,111.644,37.649,108.982z M37.649,198.68c0-2.661-2.157-4.818-4.819-4.818c-2.661,0-4.818,2.157-4.818,4.818
	c0,2.662,2.157,4.819,4.818,4.819C35.492,203.5,37.649,201.342,37.649,198.68z M169.744,198.68c0-2.661-2.158-4.818-4.819-4.818
	s-4.819,2.157-4.819,4.818c0,2.662,2.158,4.819,4.819,4.819S169.744,201.342,169.744,198.68z M169.744,108.982
	c0-2.662-2.158-4.819-4.819-4.819s-4.819,2.157-4.819,4.819s2.158,4.819,4.819,4.819S169.744,111.644,169.744,108.982z
	 M169.744,19.284c0-2.662-2.158-4.819-4.819-4.819s-4.819,2.157-4.819,4.819s2.158,4.819,4.819,4.819S169.744,21.946,169.744,19.284
	z"/>
</svg>
