<?xml version="1.0" encoding="utf-8"?>
<!-- Generator: Adobe Illustrator 16.0.4, SVG Export Plug-In . SVG Version: 6.00 Build 0)  -->
<!DOCTYPE svg PUBLIC "-//W3C//DTD SVG 1.1//EN" "http://www.w3.org/Graphics/SVG/1.1/DTD/svg11.dtd">
<svg version="1.1" id="レイヤー_1" xmlns="http://www.w3.org/2000/svg" xmlns:xlink="http://www.w3.org/1999/xlink" x="0px"
	 y="0px" width="595.279px" height="841.89px" viewBox="0 0 595.279 841.89" enable-background="new 0 0 595.279 841.89"
	 xml:space="preserve">
<path fill="none" stroke="#004080" stroke-linecap="round" stroke-linejoin="round" d="M0,0h272.125v274.961H0V0z"/>
<path fill="none" stroke="#000000" stroke-linecap="round" stroke-linejoin="round" d="M11.338,268.44
	c-2.662,0-4.818-2.157-4.818-4.819c0-2.66,2.156-4.818,4.818-4.818c2.661,0,4.818,2.158,4.818,4.818
	C16.157,266.283,14,268.44,11.338,268.44z M23.572,213.481c0-2.661-2.156-4.819-4.818-4.819c-2.661,0-4.817,2.158-4.817,4.819
	s2.156,4.819,4.817,4.819C21.415,218.301,23.572,216.143,23.572,213.481z M87.344,236.692c0-2.661-2.157-4.819-4.818-4.819
	s-4.818,2.158-4.818,4.819c0,2.661,2.157,4.819,4.818,4.819S87.344,239.354,87.344,236.692z M140.881,263.621
	c0-2.66-2.158-4.818-4.818-4.818c-2.661,0-4.819,2.158-4.819,4.818c0,2.662,2.158,4.819,4.819,4.819
	C138.723,268.44,140.881,266.283,140.881,263.621z M151.117,213.481c0-2.661-2.157-4.819-4.819-4.819
	c-2.661,0-4.817,2.158-4.817,4.819s2.156,4.819,4.817,4.819C148.96,218.301,151.117,216.143,151.117,213.481z M214.889,236.692
	c0-2.661-2.156-4.819-4.817-4.819c-2.662,0-4.819,2.158-4.819,4.819c0,2.661,2.157,4.819,4.819,4.819
	C212.733,241.512,214.889,239.354,214.889,236.692z M265.606,263.621c0-2.66-2.157-4.818-4.818-4.818
	c-2.662,0-4.819,2.158-4.819,4.818c0,2.662,2.157,4.819,4.819,4.819C263.448,268.44,265.606,266.283,265.606,263.621z
	 M265.606,11.338c0-2.661-2.157-4.818-4.818-4.818c-2.662,0-4.819,2.157-4.819,4.818c0,2.662,2.157,4.819,4.819,4.819
	C263.448,16.157,265.606,14,265.606,11.338z M214.889,38.268c0-2.662-2.156-4.818-4.817-4.818c-2.662,0-4.819,2.156-4.819,4.818
	c0,2.661,2.157,4.818,4.819,4.818C212.733,43.086,214.889,40.929,214.889,38.268z M151.117,61.479c0-2.661-2.157-4.818-4.819-4.818
	c-2.661,0-4.817,2.157-4.817,4.818c0,2.662,2.156,4.819,4.817,4.819C148.96,66.298,151.117,64.141,151.117,61.479z M140.881,11.338
	c0-2.661-2.158-4.818-4.818-4.818c-2.661,0-4.819,2.157-4.819,4.818c0,2.662,2.158,4.819,4.819,4.819
	C138.723,16.157,140.881,14,140.881,11.338z M87.344,38.268c0-2.662-2.157-4.818-4.818-4.818s-4.818,2.156-4.818,4.818
	c0,2.661,2.157,4.818,4.818,4.818S87.344,40.929,87.344,38.268z M23.572,61.479c0-2.661-2.156-4.818-4.818-4.818
	c-2.661,0-4.817,2.157-4.817,4.818c0,2.662,2.156,4.819,4.817,4.819C21.415,66.298,23.572,64.141,23.572,61.479z M16.157,11.338
	c0-2.661-2.157-4.818-4.818-4.818c-2.662,0-4.818,2.157-4.818,4.818c0,2.662,2.156,4.819,4.818,4.819
	C14,16.157,16.157,14,16.157,11.338z M171.674,145.701c0-5.48,0-10.961,0-16.441c4.063,0,8.127,0,12.189,0
	c3.287,0,5.953-2.666,5.953-5.953c0-3.287-2.666-5.953-5.953-5.953c-4.062,0-8.126,0-12.189,0c0-3.4,0-6.803,0-10.204
	c-39.117,0-78.235,0-117.354,0c0,3.401,0,6.804,0,10.204c-4.063,0-8.127,0-12.189,0c-3.287,0-5.953,2.666-5.953,5.953
	c0,3.287,2.666,5.953,5.953,5.953c4.062,0,8.126,0,12.189,0c0,5.48,0,10.961,0,16.441c-4.063,0-8.127,0-12.189,0
	c-3.287,0-5.953,2.664-5.953,5.952c0,3.288,2.666,5.952,5.953,5.952c4.062,0,8.126,0,12.189,0c0,3.402,0,6.804,0,10.205
	c39.117,0,78.235,0,117.354,0c0-3.401,0-6.803,0-10.205c4.063,0,8.127,0,12.189,0c3.287,0,5.953-2.664,5.953-5.952
	c0-3.288-2.666-5.952-5.953-5.952C179.801,145.701,175.739,145.701,171.674,145.701z"/>
</svg>
