<?xml version="1.0" encoding="utf-8"?>
<!-- Generator: Adobe Illustrator 16.0.4, SVG Export Plug-In . SVG Version: 6.00 Build 0)  -->
<!DOCTYPE svg PUBLIC "-//W3C//DTD SVG 1.1//EN" "http://www.w3.org/Graphics/SVG/1.1/DTD/svg11.dtd">
<svg version="1.1" id="レイヤー_1" xmlns="http://www.w3.org/2000/svg" xmlns:xlink="http://www.w3.org/1999/xlink" x="0px"
	 y="0px" width="595.28px" height="841.89px" viewBox="0 0 595.28 841.89" enable-background="new 0 0 595.28 841.89"
	 xml:space="preserve">
<path fill="none" stroke="#E60012" stroke-linecap="round" stroke-linejoin="round" d="M27.163,22.203c68.476,0,136.95,0,205.425,0
	c0,73.218,0,146.435,0,219.652c0,4.699,0,9.398,0,14.097c0,14.08-11.414,25.495-25.495,25.495
	c-14.079,0-25.494-11.415-25.494-25.495c0-4.699,0-9.398,0-14.097c-20.787,0-41.574,0-62.361,0c0,4.699,0,9.398,0,14.097
	c0,14.08-11.415,25.494-25.495,25.494s-25.494-11.414-25.494-25.494c0-4.699,0-9.398,0-14.097c-13.694,0-27.39,0-41.085,0
	C27.163,168.637,27.163,95.42,27.163,22.203z"/>
<path fill="none" stroke="#000000" stroke-linecap="round" stroke-linejoin="round" d="M155.194,178.566
	c-2.662,0-4.819-2.157-4.819-4.819s2.157-4.819,4.819-4.819c2.661,0,4.818,2.157,4.818,4.819S157.855,178.566,155.194,178.566z
	 M43.32,230.516c0-2.661-2.157-4.819-4.818-4.819s-4.818,2.158-4.818,4.819c0,2.662,2.157,4.819,4.818,4.819
	S43.32,233.178,43.32,230.516z M43.32,33.542c0-2.662-2.157-4.819-4.818-4.819s-4.818,2.158-4.818,4.819
	c0,2.661,2.157,4.819,4.818,4.819S43.32,36.203,43.32,33.542z M160.013,33.542c0-2.662-2.157-4.819-4.818-4.819
	c-2.662,0-4.819,2.158-4.819,4.819c0,2.661,2.157,4.819,4.819,4.819C157.855,38.36,160.013,36.203,160.013,33.542z M160.013,103.644
	c0-2.661-2.157-4.819-4.818-4.819c-2.662,0-4.819,2.158-4.819,4.819c0,2.662,2.157,4.819,4.819,4.819
	C157.855,108.463,160.013,106.306,160.013,103.644z M211.629,255.952c0-2.505-2.03-4.536-4.536-4.536
	c-2.504,0-4.535,2.031-4.535,4.536s2.031,4.536,4.535,4.536C209.599,260.488,211.629,258.457,211.629,255.952z M98.278,255.952
	c0-2.505-2.031-4.535-4.536-4.535c-2.504,0-4.535,2.03-4.535,4.535s2.031,4.536,4.535,4.536
	C96.247,260.487,98.278,258.457,98.278,255.952z"/>
</svg>
