<?xml version="1.0" encoding="utf-8"?>
<!-- Generator: Adobe Illustrator 16.0.4, SVG Export Plug-In . SVG Version: 6.00 Build 0)  -->
<!DOCTYPE svg PUBLIC "-//W3C//DTD SVG 1.1//EN" "http://www.w3.org/Graphics/SVG/1.1/DTD/svg11.dtd">
<svg version="1.1" id="レイヤー_1" xmlns="http://www.w3.org/2000/svg" xmlns:xlink="http://www.w3.org/1999/xlink" x="0px"
	 y="0px" width="595.279px" height="841.89px" viewBox="0 0 595.279 841.89" enable-background="new 0 0 595.279 841.89"
	 xml:space="preserve">
<path fill="none" stroke="#004080" stroke-linecap="round" stroke-linejoin="round" d="M113.906,0v158.74H0V0H113.906z
	 M201.735,169.782H0.475v113.904h201.26V169.782z"/>
<path fill="none" stroke="#000000" stroke-linecap="round" stroke-linejoin="round" d="M94.064,15.024
	c2.661,0,4.817,2.158,4.817,4.818c0,2.662-2.156,4.82-4.817,4.82c-2.662,0-4.819-2.158-4.819-4.82
	C89.244,17.182,91.402,15.024,94.064,15.024z M15.025,19.842c0,2.662,2.158,4.82,4.817,4.82c2.662,0,4.819-2.158,4.819-4.82
	c0-2.66-2.157-4.818-4.819-4.818C17.183,15.024,15.025,17.182,15.025,19.842z M15.025,138.899c0,2.66,2.158,4.818,4.817,4.818
	c2.662,0,4.819-2.158,4.819-4.818c0-2.662-2.157-4.82-4.819-4.82C17.183,134.079,15.025,136.237,15.025,138.899z M89.244,138.899
	c0,2.66,2.157,4.818,4.819,4.818c2.661,0,4.817-2.158,4.817-4.818c0-2.662-2.156-4.82-4.817-4.82
	C91.402,134.079,89.244,136.237,89.244,138.899z M120.38,190.142c0,2.662,2.157,4.819,4.818,4.819c2.662,0,4.819-2.157,4.819-4.819
	c0-2.661-2.157-4.818-4.819-4.818C122.538,185.324,120.38,187.481,120.38,190.142z M177.073,189.624
	c0,2.661,2.157,4.818,4.819,4.818c2.661,0,4.817-2.157,4.817-4.818c0-2.662-2.156-4.819-4.817-4.819
	C179.231,184.805,177.073,186.962,177.073,189.624z M177.073,263.843c0,2.662,2.157,4.819,4.819,4.819
	c2.661,0,4.817-2.157,4.817-4.819c0-2.661-2.156-4.818-4.817-4.818C179.231,259.025,177.073,261.182,177.073,263.843z
	 M120.38,263.843c0,2.662,2.157,4.819,4.818,4.819c2.662,0,4.819-2.157,4.819-4.819c0-2.661-2.157-4.818-4.819-4.818
	C122.538,259.025,120.38,261.182,120.38,263.843z M15.499,263.843c0,2.662,2.157,4.819,4.818,4.819s4.819-2.157,4.819-4.819
	c0-2.661-2.158-4.818-4.819-4.818S15.499,261.182,15.499,263.843z M46.68,263.843c0,2.662,2.157,4.819,4.818,4.819
	s4.818-2.157,4.818-4.819c0-2.661-2.157-4.818-4.818-4.818S46.68,261.182,46.68,263.843z M46.68,190.142
	c0,2.662,2.157,4.819,4.818,4.819s4.818-2.157,4.818-4.819c0-2.661-2.157-4.818-4.818-4.818S46.68,187.481,46.68,190.142z
	 M15.499,189.624c0,2.661,2.157,4.818,4.818,4.818s4.819-2.157,4.819-4.818c0-2.662-2.158-4.819-4.819-4.819
	S15.499,186.962,15.499,189.624z M57.167,226.994c0,17.221,13.961,31.181,31.183,31.181c17.221,0,31.18-13.96,31.18-31.181
	c0-17.222-13.959-31.182-31.18-31.182C71.128,195.812,57.167,209.772,57.167,226.994z"/>
</svg>
