<?xml version="1.0" encoding="utf-8"?>
<!-- Generator: Adobe Illustrator 16.0.4, SVG Export Plug-In . SVG Version: 6.00 Build 0)  -->
<!DOCTYPE svg PUBLIC "-//W3C//DTD SVG 1.1//EN" "http://www.w3.org/Graphics/SVG/1.1/DTD/svg11.dtd">
<svg version="1.1" id="レイヤー_1" xmlns="http://www.w3.org/2000/svg" xmlns:xlink="http://www.w3.org/1999/xlink" x="0px"
	 y="0px" width="595.279px" height="841.89px" viewBox="0 0 595.279 841.89" enable-background="new 0 0 595.279 841.89"
	 xml:space="preserve">
<path fill="none" stroke="#004080" stroke-linecap="round" stroke-linejoin="round" d="M145.659,257.964
	c34.599,0,62.646,28.047,62.646,62.646c0,34.598-28.047,62.646-62.646,62.646s-62.646-28.048-62.646-62.646
	C83.013,286.011,111.061,257.964,145.659,257.964z M119.636,239.479c42.74,0,77.386-34.646,77.386-77.386
	c0-42.74-34.646-77.386-77.386-77.386S42.25,119.354,42.25,162.093C42.25,204.833,76.897,239.479,119.636,239.479z M157.198,69.966
	c14.208,0.355,25.968-10.969,26.146-25.182c0.178-14.211-11.294-25.827-25.507-25.827c-25.651,0-51.304,0-76.956,0
	C69.748,3.063,49.593-3.774,31.087,2.062C12.581,7.9-0.002,25.065,0,44.471c0.002,19.405,12.589,36.567,31.097,42.4
	c18.507,5.834,38.66-1.009,49.789-16.905C106.323,69.965,131.76,69.965,157.198,69.966z"/>
<path fill="none" stroke="#000000" stroke-linecap="round" stroke-linejoin="round" d="M114.478,320.61
	c0-17.221,13.96-31.181,31.182-31.181c17.221,0,31.181,13.96,31.181,31.181c0,17.221-13.96,31.181-31.181,31.181
	C128.438,351.792,114.478,337.832,114.478,320.61z M145.658,285.745c2.661,0,4.818-2.158,4.818-4.819
	c0-2.662-2.157-4.819-4.818-4.819s-4.819,2.157-4.819,4.819C140.839,283.586,142.997,285.745,145.658,285.745z M108.808,288.579
	c2.662,0,4.819-2.157,4.819-4.819c0-2.661-2.157-4.819-4.819-4.819c-2.661,0-4.817,2.158-4.817,4.819
	C103.99,286.421,106.147,288.579,108.808,288.579z M182.509,288.579c2.661,0,4.819-2.157,4.819-4.819
	c0-2.661-2.158-4.819-4.819-4.819s-4.819,2.158-4.819,4.819C177.69,286.421,179.848,288.579,182.509,288.579z M185.344,325.43
	c2.661,0,4.818-2.158,4.818-4.819c0-2.661-2.157-4.819-4.818-4.819s-4.818,2.157-4.818,4.819
	C180.526,323.271,182.683,325.43,185.344,325.43z M182.509,362.278c2.661,0,4.819-2.157,4.819-4.819c0-2.66-2.158-4.818-4.819-4.818
	s-4.819,2.158-4.819,4.818C177.69,360.123,179.848,362.278,182.509,362.278z M145.658,365.113c2.661,0,4.818-2.158,4.818-4.818
	c0-2.662-2.157-4.819-4.818-4.819s-4.819,2.157-4.819,4.819C140.839,362.957,142.997,365.113,145.658,365.113z M108.808,362.278
	c2.662,0,4.819-2.157,4.819-4.819c0-2.66-2.157-4.818-4.819-4.818c-2.661,0-4.817,2.158-4.817,4.818
	C103.99,360.123,106.147,362.279,108.808,362.278z M105.974,325.43c2.661,0,4.818-2.158,4.818-4.819
	c0-2.661-2.157-4.819-4.818-4.819c-2.662,0-4.818,2.157-4.818,4.819C101.156,323.271,103.312,325.43,105.974,325.43z
	 M124.455,201.778c0-2.661-2.157-4.818-4.819-4.818c-2.661,0-4.817,2.157-4.817,4.818c0,2.662,2.156,4.819,4.817,4.819
	C122.298,206.598,124.455,204.439,124.455,201.778z M161.306,198.944c0-2.662-2.158-4.819-4.818-4.819
	c-2.661,0-4.819,2.157-4.819,4.819c0,2.661,2.158,4.818,4.819,4.818C159.148,203.763,161.306,201.604,161.306,198.944z
	 M164.14,162.093c0-2.661-2.156-4.819-4.817-4.819s-4.819,2.158-4.819,4.819c0,2.661,2.157,4.819,4.819,4.819
	C161.984,166.913,164.14,164.754,164.14,162.093z M161.306,125.243c0-2.661-2.158-4.819-4.818-4.819
	c-2.661,0-4.819,2.158-4.819,4.819c0,2.661,2.158,4.819,4.819,4.819C159.148,130.062,161.306,127.903,161.306,125.243z
	 M124.455,122.409c0-2.661-2.157-4.818-4.819-4.818c-2.661,0-4.817,2.157-4.817,4.818c0,2.661,2.156,4.819,4.817,4.819
	C122.298,127.228,124.455,125.069,124.455,122.409z M87.605,125.243c0-2.661-2.156-4.819-4.818-4.819s-4.819,2.158-4.819,4.819
	c0,2.661,2.157,4.819,4.819,4.819S87.605,127.903,87.605,125.243z M87.605,198.944c0-2.662-2.156-4.819-4.818-4.819
	s-4.819,2.157-4.819,4.819c0,2.661,2.157,4.818,4.819,4.818S87.605,201.604,87.605,198.944z M84.77,162.093
	c0-2.661-2.156-4.819-4.817-4.819s-4.819,2.158-4.819,4.819c0,2.661,2.157,4.819,4.819,4.819
	C82.614,166.913,84.77,164.754,84.77,162.093z M150.819,162.092c0-17.221-13.962-31.181-31.183-31.181s-31.181,13.96-31.181,31.181
	c0,17.221,13.96,31.181,31.181,31.181S150.819,179.313,150.819,162.092z M44.463,27.458c-9.394,0-17.008,7.614-17.008,17.008
	c0,9.394,7.614,17.008,17.008,17.008c9.393,0,17.008-7.615,17.008-17.008C61.471,35.072,53.855,27.458,44.463,27.458z
	 M158.25,39.379c-2.811-0.228-5.271,1.863-5.499,4.672c-0.229,2.809,1.864,5.271,4.673,5.5c2.81,0.226,5.27-1.865,5.498-4.674
	S161.057,39.607,158.25,39.379z M73.78,44.465c0,2.582,2.094,4.677,4.677,4.677s4.677-2.095,4.677-4.677
	c0-2.584-2.094-4.678-4.677-4.678S73.78,41.881,73.78,44.465z M15.147,44.465c0-2.583-2.094-4.678-4.677-4.678
	s-4.677,2.095-4.677,4.678s2.094,4.677,4.677,4.677S15.147,47.048,15.147,44.465z M44.463,15.149c2.583,0,4.677-2.094,4.677-4.677
	s-2.094-4.678-4.677-4.678s-4.678,2.095-4.678,4.678S41.88,15.149,44.463,15.149z M44.462,73.782c-2.583,0-4.678,2.094-4.678,4.677
	s2.095,4.677,4.678,4.677s4.677-2.094,4.677-4.677S47.045,73.782,44.462,73.782z"/>
</svg>
