<?xml version="1.0" encoding="utf-8"?>
<!-- Generator: Adobe Illustrator 16.0.4, SVG Export Plug-In . SVG Version: 6.00 Build 0)  -->
<!DOCTYPE svg PUBLIC "-//W3C//DTD SVG 1.1//EN" "http://www.w3.org/Graphics/SVG/1.1/DTD/svg11.dtd">
<svg version="1.1" id="レイヤー_1" xmlns="http://www.w3.org/2000/svg" xmlns:xlink="http://www.w3.org/1999/xlink" x="0px"
	 y="0px" width="595.279px" height="841.89px" viewBox="0 0 595.279 841.89" enable-background="new 0 0 595.279 841.89"
	 xml:space="preserve">
<path fill="none" stroke="#E60012" stroke-linecap="round" stroke-linejoin="round" d="M0,283.465V0h96.378v283.465H0z
	 M219.822,283.465V0H106.435v283.465H219.822z"/>
<path fill="none" stroke="#000000" stroke-linecap="round" stroke-linejoin="round" d="M6.519,19.842
	c0-2.661,2.157-4.818,4.818-4.818c2.662,0,4.819,2.157,4.819,4.818c0,2.662-2.157,4.819-4.819,4.819
	C8.677,24.662,6.519,22.505,6.519,19.842z M11.338,92.693c2.662,0,4.819-2.157,4.819-4.819c0-2.661-2.157-4.818-4.819-4.818
	c-2.661,0-4.818,2.157-4.818,4.818C6.519,90.536,8.677,92.693,11.338,92.693z M11.338,200.41c2.662,0,4.819-2.157,4.819-4.819
	c0-2.661-2.157-4.818-4.819-4.818c-2.661,0-4.818,2.157-4.818,4.818C6.519,198.253,8.677,200.41,11.338,200.41z M11.338,268.441
	c2.662,0,4.819-2.157,4.819-4.818c0-2.662-2.157-4.819-4.819-4.819c-2.661,0-4.818,2.157-4.818,4.819
	C6.519,266.284,8.677,268.441,11.338,268.441z M85.039,268.441c2.662,0,4.817-2.157,4.817-4.818c0-2.662-2.155-4.819-4.817-4.819
	c-2.661,0-4.818,2.157-4.818,4.819C80.221,266.284,82.378,268.441,85.039,268.441z M85.039,200.41c2.662,0,4.817-2.157,4.817-4.819
	c0-2.661-2.155-4.818-4.817-4.818c-2.661,0-4.818,2.157-4.818,4.818C80.221,198.253,82.378,200.41,85.039,200.41z M85.039,92.693
	c2.662,0,4.817-2.157,4.817-4.819c0-2.661-2.155-4.818-4.817-4.818c-2.661,0-4.818,2.157-4.818,4.818
	C80.221,90.536,82.378,92.693,85.039,92.693z M85.039,24.662c2.662,0,4.817-2.157,4.817-4.819c0-2.661-2.155-4.818-4.817-4.818
	c-2.661,0-4.818,2.157-4.818,4.818C80.221,22.505,82.378,24.662,85.039,24.662z M126.278,268.441c2.661,0,4.818-2.157,4.818-4.818
	c0-2.662-2.157-4.819-4.818-4.819s-4.818,2.157-4.818,4.819C121.459,266.284,123.616,268.441,126.278,268.441z M126.278,200.41
	c2.661,0,4.818-2.157,4.818-4.819c0-2.661-2.157-4.818-4.818-4.818s-4.818,2.157-4.818,4.818
	C121.459,198.253,123.616,200.41,126.278,200.41z M126.278,92.693c2.661,0,4.818-2.157,4.818-4.819c0-2.661-2.157-4.818-4.818-4.818
	s-4.818,2.157-4.818,4.818C121.459,90.536,123.616,92.693,126.278,92.693z M126.278,24.662c2.661,0,4.818-2.157,4.818-4.819
	c0-2.661-2.157-4.818-4.818-4.818s-4.818,2.157-4.818,4.818C121.459,22.505,123.616,24.662,126.278,24.662z M199.978,24.662
	c2.662,0,4.818-2.157,4.818-4.819c0-2.661-2.156-4.818-4.818-4.818c-2.661,0-4.817,2.157-4.817,4.818
	C195.16,22.505,197.317,24.662,199.978,24.662z M199.978,92.693c2.662,0,4.818-2.157,4.818-4.819c0-2.661-2.156-4.818-4.818-4.818
	c-2.661,0-4.817,2.157-4.817,4.818C195.16,90.536,197.317,92.693,199.978,92.693z M199.978,200.41c2.662,0,4.818-2.157,4.818-4.819
	c0-2.661-2.156-4.818-4.818-4.818c-2.661,0-4.817,2.157-4.817,4.818C195.16,198.253,197.317,200.41,199.978,200.41z
	 M199.978,268.441c2.662,0,4.818-2.157,4.818-4.818c0-2.662-2.156-4.819-4.818-4.819c-2.661,0-4.817,2.157-4.817,4.819
	C195.16,266.284,197.317,268.441,199.978,268.441z"/>
</svg>
