<?xml version="1.0" encoding="utf-8"?>
<!-- Generator: Adobe Illustrator 16.0.4, SVG Export Plug-In . SVG Version: 6.00 Build 0)  -->
<!DOCTYPE svg PUBLIC "-//W3C//DTD SVG 1.1//EN" "http://www.w3.org/Graphics/SVG/1.1/DTD/svg11.dtd">
<svg version="1.1" id="レイヤー_1" xmlns="http://www.w3.org/2000/svg" xmlns:xlink="http://www.w3.org/1999/xlink" x="0px"
	 y="0px" width="595.28px" height="841.89px" viewBox="0 0 595.28 841.89" enable-background="new 0 0 595.28 841.89"
	 xml:space="preserve">
<path fill="none" stroke="#004080" stroke-linecap="round" stroke-linejoin="round" d="M212.822,365.555
	c0.573,24.948-19.494,45.481-44.449,45.481c-24.956,0-45.023-20.533-44.451-45.481 M195.826,15.69h-54.908 M140.917,15.69
	c-9.39,0-17,7.614-16.996,17.003 M212.822,32.693c0.004-9.389-7.605-17.003-16.996-17.003 M123.921,32.693v332.862 M212.822,32.693
	v332.862"/>
<path fill="none" stroke="#004080" stroke-linecap="round" stroke-linejoin="round" d="M19.012,365.555
	c-0.573,24.948,19.495,45.481,44.45,45.481s45.022-20.533,44.45-45.481c0-110.954,0-221.908,0-332.862
	c0.004-9.389-7.606-17.002-16.996-17.002c-18.303,0-36.605,0-54.909,0c-9.39,0-17,7.613-16.995,17.002
	C19.012,143.647,19.012,254.601,19.012,365.555z"/>
<path fill="none" stroke="#004080" stroke-linecap="round" stroke-linejoin="round" d="M258.731,37.656
	c0-9.387-7.609-16.996-16.996-16.996s-16.997,7.609-16.997,16.996c0,114.909,0,229.817,0,344.727c0,9.387,7.61,16.996,16.997,16.996
	s16.996-7.609,16.996-16.996C258.731,267.473,258.731,152.565,258.731,37.656z"/>
<path fill="none" stroke="#000000" stroke-linecap="round" stroke-linejoin="round" d="M192.98,288.379
	c-2.661,0-4.818-2.158-4.818-4.819c0-2.661,2.157-4.818,4.818-4.818c2.662,0,4.819,2.157,4.819,4.818
	C197.799,286.222,195.642,288.379,192.98,288.379z M148.583,283.56c0-2.661-2.157-4.818-4.819-4.818
	c-2.661,0-4.818,2.157-4.818,4.818c0,2.662,2.157,4.819,4.818,4.819C146.425,288.379,148.583,286.222,148.583,283.56z
	 M148.583,193.862c0-2.661-2.157-4.819-4.819-4.819c-2.661,0-4.818,2.158-4.818,4.819c0,2.662,2.157,4.819,4.818,4.819
	C146.425,198.681,148.583,196.523,148.583,193.862z M197.799,193.862c0-2.661-2.157-4.819-4.819-4.819
	c-2.661,0-4.818,2.158-4.818,4.819c0,2.662,2.157,4.819,4.818,4.819C195.642,198.681,197.799,196.523,197.799,193.862z
	 M197.799,104.164c0-2.661-2.157-4.819-4.819-4.819c-2.661,0-4.818,2.158-4.818,4.819c0,2.662,2.157,4.819,4.818,4.819
	C195.642,108.982,197.799,106.825,197.799,104.164z M148.583,104.164c0-2.661-2.157-4.819-4.819-4.819
	c-2.661,0-4.818,2.158-4.818,4.819c0,2.662,2.157,4.819,4.818,4.819C146.425,108.982,148.583,106.825,148.583,104.164z
	 M92.889,283.56c0-2.661-2.157-4.819-4.818-4.819c-2.662,0-4.819,2.158-4.819,4.819c0,2.662,2.157,4.819,4.819,4.819
	C90.732,288.379,92.889,286.221,92.889,283.56z M43.672,283.56c0-2.661-2.156-4.819-4.818-4.819s-4.818,2.158-4.818,4.819
	c0,2.662,2.156,4.819,4.818,4.819S43.672,286.221,43.672,283.56z M43.672,193.861c0-2.661-2.156-4.819-4.818-4.819
	s-4.818,2.158-4.818,4.819c0,2.662,2.156,4.819,4.818,4.819S43.672,196.523,43.672,193.861z M92.889,193.861
	c0-2.661-2.157-4.819-4.818-4.819c-2.662,0-4.819,2.158-4.819,4.819c0,2.662,2.157,4.819,4.819,4.819
	C90.732,198.681,92.889,196.523,92.889,193.861z M92.889,104.163c0-2.661-2.157-4.819-4.818-4.819c-2.662,0-4.819,2.158-4.819,4.819
	c0,2.662,2.157,4.819,4.819,4.819C90.732,108.982,92.889,106.825,92.889,104.163z M43.672,104.163c0-2.661-2.156-4.819-4.818-4.819
	s-4.818,2.158-4.818,4.819c0,2.662,2.156,4.819,4.818,4.819S43.672,106.825,43.672,104.163z M187.623,36.101
	c2.479,0.353,4.775-1.372,5.128-3.852s-1.372-4.776-3.852-5.128s-4.776,1.372-5.129,3.852S185.142,35.749,187.623,36.101z
	 M165.978,383.414c9.299,1.322,17.91-5.145,19.232-14.444s-5.145-17.91-14.444-19.233c-9.3-1.322-17.91,5.145-19.232,14.444
	S156.677,382.091,165.978,383.414z M189.101,387.304c-1.826,1.826-1.826,4.788,0,6.615c1.827,1.826,4.789,1.826,6.615,0
	c1.826-1.827,1.826-4.789,0-6.615S190.928,385.478,189.101,387.304z M147.642,387.304c-1.826-1.826-4.787-1.826-6.614,0
	s-1.827,4.788,0,6.615c1.827,1.826,4.788,1.826,6.614,0C149.468,392.092,149.468,389.13,147.642,387.304z M147.642,345.845
	c1.826-1.826,1.826-4.788,0-6.614c-1.826-1.827-4.787-1.827-6.614,0c-1.827,1.826-1.827,4.788,0,6.614
	S145.816,347.671,147.642,345.845z M189.101,345.845c1.827,1.826,4.789,1.826,6.615,0s1.826-4.788,0-6.614
	c-1.826-1.827-4.788-1.827-6.615,0C187.275,341.057,187.275,344.019,189.101,345.845z M82.712,36.101
	c2.479,0.353,4.776-1.372,5.128-3.852c0.354-2.48-1.371-4.776-3.852-5.128c-2.479-0.353-4.775,1.372-5.129,3.852
	C78.507,33.452,80.233,35.748,82.712,36.101z M62.784,371.345c2.635,0.375,5.074-1.457,5.449-4.092s-1.457-5.074-4.093-5.449
	c-2.635-0.375-5.074,1.457-5.449,4.092C58.317,368.53,60.149,370.971,62.784,371.345z M241.369,42.177
	c2.496,0.202,4.685-1.658,4.887-4.154c0.202-2.497-1.657-4.686-4.154-4.887c-2.497-0.203-4.685,1.657-4.887,4.154
	C237.013,39.787,238.872,41.974,241.369,42.177z M241.369,386.903c2.496,0.202,4.685-1.657,4.887-4.154s-1.657-4.685-4.154-4.888
	c-2.497-0.201-4.685,1.658-4.887,4.154C237.013,384.513,238.872,386.701,241.369,386.903z"/>
</svg>
