<?xml version="1.0" encoding="utf-8"?>
<!-- Generator: Adobe Illustrator 16.0.4, SVG Export Plug-In . SVG Version: 6.00 Build 0)  -->
<!DOCTYPE svg PUBLIC "-//W3C//DTD SVG 1.1//EN" "http://www.w3.org/Graphics/SVG/1.1/DTD/svg11.dtd">
<svg version="1.1" id="レイヤー_1" xmlns="http://www.w3.org/2000/svg" xmlns:xlink="http://www.w3.org/1999/xlink" x="0px"
	 y="0px" width="595.279px" height="841.89px" viewBox="0 0 595.279 841.89" enable-background="new 0 0 595.279 841.89"
	 xml:space="preserve">
<path fill="none" stroke="#E60012" stroke-linecap="round" stroke-linejoin="round" d="M0,0c68.476,0,136.949,0,205.425,0
	c0,73.218,0,146.435,0,219.652c0,4.699,0,9.398,0,14.097c0,14.08-11.415,25.495-25.496,25.495
	c-14.079,0-25.494-11.415-25.494-25.495c0-4.699,0-9.398,0-14.097c-20.787,0-41.574,0-62.361,0c0,4.699,0,9.398,0,14.097
	c0,14.08-11.415,25.494-25.494,25.494c-14.08,0-25.494-11.414-25.494-25.494c0-4.699,0-9.398,0-14.097c-13.694,0-27.391,0-41.085,0
	C0,146.434,0,73.217,0,0z"/>
<path fill="none" stroke="#000000" stroke-linecap="round" stroke-linejoin="round" d="M128.031,156.363
	c-2.661,0-4.818-2.157-4.818-4.819s2.157-4.819,4.818-4.819s4.818,2.157,4.818,4.819S130.692,156.363,128.031,156.363z
	 M16.156,208.313c0-2.661-2.156-4.819-4.817-4.819s-4.818,2.158-4.818,4.819c0,2.662,2.157,4.819,4.818,4.819
	S16.156,210.975,16.156,208.313z M16.156,11.339c0-2.662-2.156-4.819-4.817-4.819s-4.818,2.158-4.818,4.819s2.157,4.819,4.818,4.819
	S16.156,14,16.156,11.339z M132.85,11.339c0-2.662-2.157-4.819-4.818-4.819s-4.818,2.158-4.818,4.819s2.157,4.819,4.818,4.819
	C130.692,16.157,132.85,14,132.85,11.339z M132.85,81.441c0-2.661-2.157-4.819-4.818-4.819s-4.818,2.158-4.818,4.819
	c0,2.662,2.157,4.819,4.818,4.819C130.692,86.26,132.85,84.103,132.85,81.441z M184.466,233.749c0-2.505-2.03-4.536-4.536-4.536
	c-2.504,0-4.535,2.031-4.535,4.536s2.031,4.536,4.535,4.536C182.436,238.285,184.466,236.254,184.466,233.749z M71.115,233.749
	c0-2.505-2.03-4.535-4.535-4.535s-4.535,2.03-4.535,4.535s2.03,4.536,4.535,4.536C69.084,238.284,71.115,236.254,71.115,233.749z"/>
</svg>
