<?xml version="1.0" encoding="utf-8"?>
<!-- Generator: Adobe Illustrator 16.0.4, SVG Export Plug-In . SVG Version: 6.00 Build 0)  -->
<!DOCTYPE svg PUBLIC "-//W3C//DTD SVG 1.1//EN" "http://www.w3.org/Graphics/SVG/1.1/DTD/svg11.dtd">
<svg version="1.1" id="レイヤー_1" xmlns="http://www.w3.org/2000/svg" xmlns:xlink="http://www.w3.org/1999/xlink" x="0px"
	 y="0px" width="595.28px" height="841.89px" viewBox="0 0 595.28 841.89" enable-background="new 0 0 595.28 841.89"
	 xml:space="preserve">
<path fill="none" stroke="#004080" stroke-linecap="round" stroke-linejoin="round" d="M136.677,9.856v158.74H22.772V9.856H136.677z
	 M224.506,179.638H23.246v113.904h201.26V179.638z"/>
<path fill="none" stroke="#000000" stroke-linecap="round" stroke-linejoin="round" d="M116.835,24.88
	c2.661,0,4.818,2.158,4.818,4.818c0,2.662-2.157,4.82-4.818,4.82c-2.662,0-4.819-2.158-4.819-4.82
	C112.016,27.038,114.173,24.88,116.835,24.88z M37.796,29.698c0,2.662,2.158,4.82,4.818,4.82c2.662,0,4.819-2.158,4.819-4.82
	c0-2.66-2.157-4.818-4.819-4.818C39.954,24.88,37.796,27.038,37.796,29.698z M37.796,148.755c0,2.66,2.158,4.818,4.818,4.818
	c2.662,0,4.819-2.158,4.819-4.818c0-2.662-2.157-4.82-4.819-4.82C39.954,143.935,37.796,146.093,37.796,148.755z M112.016,148.755
	c0,2.66,2.157,4.818,4.819,4.818c2.661,0,4.818-2.158,4.818-4.818c0-2.662-2.157-4.82-4.818-4.82
	C114.173,143.935,112.016,146.093,112.016,148.755z M143.152,199.998c0,2.662,2.157,4.819,4.818,4.819
	c2.662,0,4.819-2.157,4.819-4.819c0-2.661-2.157-4.818-4.819-4.818C145.31,195.18,143.152,197.337,143.152,199.998z M199.845,199.48
	c0,2.661,2.157,4.818,4.819,4.818c2.661,0,4.818-2.157,4.818-4.818c0-2.662-2.157-4.819-4.818-4.819
	C202.002,194.661,199.845,196.818,199.845,199.48z M199.845,273.699c0,2.662,2.157,4.819,4.819,4.819
	c2.661,0,4.818-2.157,4.818-4.819c0-2.661-2.157-4.818-4.818-4.818C202.002,268.881,199.845,271.038,199.845,273.699z
	 M143.152,273.699c0,2.662,2.157,4.819,4.818,4.819c2.662,0,4.819-2.157,4.819-4.819c0-2.661-2.157-4.818-4.819-4.818
	C145.31,268.881,143.152,271.038,143.152,273.699z M38.271,273.699c0,2.662,2.157,4.819,4.818,4.819s4.819-2.157,4.819-4.819
	c0-2.661-2.158-4.818-4.819-4.818S38.271,271.038,38.271,273.699z M69.451,273.699c0,2.662,2.158,4.819,4.819,4.819
	s4.818-2.157,4.818-4.819c0-2.661-2.157-4.818-4.818-4.818S69.451,271.038,69.451,273.699z M69.451,199.998
	c0,2.662,2.158,4.819,4.819,4.819s4.818-2.157,4.818-4.819c0-2.661-2.157-4.818-4.818-4.818S69.451,197.337,69.451,199.998z
	 M38.271,199.48c0,2.661,2.157,4.818,4.818,4.818s4.819-2.157,4.819-4.818c0-2.662-2.158-4.819-4.819-4.819
	S38.271,196.818,38.271,199.48z M79.939,236.85c0,17.221,13.961,31.181,31.182,31.181s31.18-13.96,31.18-31.181
	c0-17.222-13.959-31.182-31.18-31.182S79.939,219.628,79.939,236.85z"/>
</svg>
